<svg class="main-svg" xmlns="http://www.w3.org/2000/svg" xmlns:xlink="http://www.w3.org/1999/xlink" width="1000" height="600" style="" viewBox="0 0 1000 600"><rect x="0" y="0" width="1000" height="600" style="fill: rgb(255, 255, 255); fill-opacity: 1;"/><defs id="defs-6dd6af"><g class="clips"><clipPath id="clip6dd6afxyplot" class="plotclip"><rect width="810" height="307.692"/></clipPath><clipPath id="clip6dd6afx2y2plot" class="plotclip"><rect width="810" height="108.10799999999999"/></clipPath><clipPath class="axesclip" id="clip6dd6afx"><rect x="80" y="0" width="810" height="600"/></clipPath><clipPath class="axesclip" id="clip6dd6afy"><rect x="0" y="212.308" width="1000" height="307.692"/></clipPath><clipPath class="axesclip" id="clip6dd6afxy"><rect x="80" y="212.308" width="810" height="307.692"/></clipPath><clipPath class="axesclip" id="clip6dd6afy2"><rect x="0" y="100" width="1000" height="108.10799999999999"/></clipPath><clipPath class="axesclip" id="clip6dd6afxy2"><rect x="80" y="100" width="810" height="108.10799999999999"/></clipPath><clipPath class="axesclip" id="clip6dd6afx2"><rect x="80" y="0" width="810" height="600"/></clipPath><clipPath class="axesclip" id="clip6dd6afx2y"><rect x="80" y="212.308" width="810" height="307.692"/></clipPath><clipPath class="axesclip" id="clip6dd6afx2y2"><rect x="80" y="100" width="810" height="108.10799999999999"/></clipPath></g><g class="gradients"/><g class="patterns"/></defs><g class="bglayer"><rect class="bg" x="80" y="212.308" width="810" height="307.692" style="fill: rgb(229, 236, 246); fill-opacity: 1; stroke-width: 0;"/><rect class="bg" x="80" y="100" width="810" height="108.10799999999999" style="fill: rgb(229, 236, 246); fill-opacity: 1; stroke-width: 0;"/></g><g class="layer-below"><g class="imagelayer"/><g class="shapelayer"/></g><g class="cartesianlayer"><g class="subplot xy"><g class="layer-subplot"><g class="shapelayer"/><g class="imagelayer"/></g><g class="minor-gridlayer"><g class="x"/><g class="y"/></g><g class="gridlayer"><g class="x"/><g class="y"><path class="ygrid crisp" transform="translate(0,476.568)" d="M80,0h810" style="stroke: rgb(255, 255, 255); stroke-opacity: 1; stroke-width: 1px;"/><path class="ygrid crisp" transform="translate(0,433.13800000000003)" d="M80,0h810" style="stroke: rgb(255, 255, 255); stroke-opacity: 1; stroke-width: 1px;"/><path class="ygrid crisp" transform="translate(0,389.698)" d="M80,0h810" style="stroke: rgb(255, 255, 255); stroke-opacity: 1; stroke-width: 1px;"/><path class="ygrid crisp" transform="translate(0,346.26800000000003)" d="M80,0h810" style="stroke: rgb(255, 255, 255); stroke-opacity: 1; stroke-width: 1px;"/><path class="ygrid crisp" transform="translate(0,302.828)" d="M80,0h810" style="stroke: rgb(255, 255, 255); stroke-opacity: 1; stroke-width: 1px;"/><path class="ygrid crisp" transform="translate(0,259.398)" d="M80,0h810" style="stroke: rgb(255, 255, 255); stroke-opacity: 1; stroke-width: 1px;"/><path class="ygrid crisp" transform="translate(0,215.968)" d="M80,0h810" style="stroke: rgb(255, 255, 255); stroke-opacity: 1; stroke-width: 1px;"/></g></g><g class="zerolinelayer"><path class="yzl zl crisp" transform="translate(0,519.998)" d="M80,0h810" style="stroke: rgb(255, 255, 255); stroke-opacity: 1; stroke-width: 2px;"/></g><path class="xlines-below"/><path class="ylines-below"/><g class="overlines-below"/><g class="xaxislayer-below"/><g class="yaxislayer-below"/><g class="overaxes-below"/><g class="plot" transform="translate(80,212.308)" clip-path="url(#clip6dd6afxyplot)"><g class="barlayer mlayer"><g class="trace bars" style="opacity: 1;"><g class="points"><g class="point"><path d="M61.83,307.69V306.82H73.63V307.69Z" style="vector-effect: non-scaling-stroke; opacity: 1; stroke-width: 0px; fill: rgb(65, 105, 225); fill-opacity: 1;"/></g><g class="point"><path d="M91.33,307.69V306.39H103.13V307.69Z" style="vector-effect: non-scaling-stroke; opacity: 1; stroke-width: 0px; fill: rgb(65, 105, 225); fill-opacity: 1;"/></g><g class="point"><path d="M120.83,307.69V302.05H132.63V307.69Z" style="vector-effect: non-scaling-stroke; opacity: 1; stroke-width: 0px; fill: rgb(65, 105, 225); fill-opacity: 1;"/></g><g class="point"><path d="M150.33,307.69V294.23H162.13V307.69Z" style="vector-effect: non-scaling-stroke; opacity: 1; stroke-width: 0px; fill: rgb(65, 105, 225); fill-opacity: 1;"/></g><g class="point"><path d="M179.83,307.69V280.76H191.63V307.69Z" style="vector-effect: non-scaling-stroke; opacity: 1; stroke-width: 0px; fill: rgb(65, 105, 225); fill-opacity: 1;"/></g><g class="point"><path d="M209.33,307.69V256.01H221.12V307.69Z" style="vector-effect: non-scaling-stroke; opacity: 1; stroke-width: 0px; fill: rgb(65, 105, 225); fill-opacity: 1;"/></g><g class="point"><path d="M238.82,307.69V209.53H250.62V307.69Z" style="vector-effect: non-scaling-stroke; opacity: 1; stroke-width: 0px; fill: rgb(65, 105, 225); fill-opacity: 1;"/></g><g class="point"><path d="M268.32,307.69V166.1H280.12V307.69Z" style="vector-effect: non-scaling-stroke; opacity: 1; stroke-width: 0px; fill: rgb(65, 105, 225); fill-opacity: 1;"/></g><g class="point"><path d="M297.82,307.69V100.95H309.62V307.69Z" style="vector-effect: non-scaling-stroke; opacity: 1; stroke-width: 0px; fill: rgb(65, 105, 225); fill-opacity: 1;"/></g><g class="point"><path d="M327.32,307.69V55.78H339.12V307.69Z" style="vector-effect: non-scaling-stroke; opacity: 1; stroke-width: 0px; fill: rgb(65, 105, 225); fill-opacity: 1;"/></g><g class="point"><path d="M356.82,307.69V50.57H368.62V307.69Z" style="vector-effect: non-scaling-stroke; opacity: 1; stroke-width: 0px; fill: rgb(65, 105, 225); fill-opacity: 1;"/></g><g class="point"><path d="M386.32,307.69V15.38H398.12V307.69Z" style="vector-effect: non-scaling-stroke; opacity: 1; stroke-width: 0px; fill: rgb(65, 105, 225); fill-opacity: 1;"/></g><g class="point"><path d="M415.82,307.69V68.37H427.62V307.69Z" style="vector-effect: non-scaling-stroke; opacity: 1; stroke-width: 0px; fill: rgb(65, 105, 225); fill-opacity: 1;"/></g><g class="point"><path d="M445.31,307.69V113.54H457.11V307.69Z" style="vector-effect: non-scaling-stroke; opacity: 1; stroke-width: 0px; fill: rgb(65, 105, 225); fill-opacity: 1;"/></g><g class="point"><path d="M474.81,307.69V176.96H486.61V307.69Z" style="vector-effect: non-scaling-stroke; opacity: 1; stroke-width: 0px; fill: rgb(65, 105, 225); fill-opacity: 1;"/></g><g class="point"><path d="M504.31,307.69V215.18H516.11V307.69Z" style="vector-effect: non-scaling-stroke; opacity: 1; stroke-width: 0px; fill: rgb(65, 105, 225); fill-opacity: 1;"/></g><g class="point"><path d="M533.81,307.69V254.7H545.61V307.69Z" style="vector-effect: non-scaling-stroke; opacity: 1; stroke-width: 0px; fill: rgb(65, 105, 225); fill-opacity: 1;"/></g><g class="point"><path d="M563.31,307.69V279.89H575.11V307.69Z" style="vector-effect: non-scaling-stroke; opacity: 1; stroke-width: 0px; fill: rgb(65, 105, 225); fill-opacity: 1;"/></g><g class="point"><path d="M592.81,307.69V294.66H604.61V307.69Z" style="vector-effect: non-scaling-stroke; opacity: 1; stroke-width: 0px; fill: rgb(65, 105, 225); fill-opacity: 1;"/></g><g class="point"><path d="M622.31,307.69V303.78H634.11V307.69Z" style="vector-effect: non-scaling-stroke; opacity: 1; stroke-width: 0px; fill: rgb(65, 105, 225); fill-opacity: 1;"/></g><g class="point"><path d="M651.81,307.69V305.52H663.61V307.69Z" style="vector-effect: non-scaling-stroke; opacity: 1; stroke-width: 0px; fill: rgb(65, 105, 225); fill-opacity: 1;"/></g><g class="point"><path d="M681.3,307.69V307.26H693.1V307.69Z" style="vector-effect: non-scaling-stroke; opacity: 1; stroke-width: 0px; fill: rgb(65, 105, 225); fill-opacity: 1;"/></g></g></g><g class="trace bars" style="opacity: 1;"><g class="points"><g class="point"><path d="M44.13,307.69V307.26H55.93V307.69Z" style="vector-effect: non-scaling-stroke; opacity: 1; stroke-width: 0px; fill: rgb(220, 20, 60); fill-opacity: 1;"/></g><g class="point"><path d="M73.63,307.69V307.26H85.43V307.69Z" style="vector-effect: non-scaling-stroke; opacity: 1; stroke-width: 0px; fill: rgb(220, 20, 60); fill-opacity: 1;"/></g><g class="point"><path d="M103.13,307.69V305.52H114.93V307.69Z" style="vector-effect: non-scaling-stroke; opacity: 1; stroke-width: 0px; fill: rgb(220, 20, 60); fill-opacity: 1;"/></g><g class="point"><path d="M132.63,307.69V305.95H144.43V307.69Z" style="vector-effect: non-scaling-stroke; opacity: 1; stroke-width: 0px; fill: rgb(220, 20, 60); fill-opacity: 1;"/></g><g class="point"><path d="M162.13,307.69V301.18H173.93V307.69Z" style="vector-effect: non-scaling-stroke; opacity: 1; stroke-width: 0px; fill: rgb(220, 20, 60); fill-opacity: 1;"/></g><g class="point"><path d="M191.63,307.69V299.87H203.43V307.69Z" style="vector-effect: non-scaling-stroke; opacity: 1; stroke-width: 0px; fill: rgb(220, 20, 60); fill-opacity: 1;"/></g><g class="point"><path d="M221.12,307.69V291.62H232.92V307.69Z" style="vector-effect: non-scaling-stroke; opacity: 1; stroke-width: 0px; fill: rgb(220, 20, 60); fill-opacity: 1;"/></g><g class="point"><path d="M250.62,307.69V286.84H262.42V307.69Z" style="vector-effect: non-scaling-stroke; opacity: 1; stroke-width: 0px; fill: rgb(220, 20, 60); fill-opacity: 1;"/></g><g class="point"><path d="M280.12,307.69V275.55H291.92V307.69Z" style="vector-effect: non-scaling-stroke; opacity: 1; stroke-width: 0px; fill: rgb(220, 20, 60); fill-opacity: 1;"/></g><g class="point"><path d="M309.62,307.69V254.27H321.42V307.69Z" style="vector-effect: non-scaling-stroke; opacity: 1; stroke-width: 0px; fill: rgb(220, 20, 60); fill-opacity: 1;"/></g><g class="point"><path d="M339.12,307.69V218.22H350.92V307.69Z" style="vector-effect: non-scaling-stroke; opacity: 1; stroke-width: 0px; fill: rgb(220, 20, 60); fill-opacity: 1;"/></g><g class="point"><path d="M368.62,307.69V203.45H380.42V307.69Z" style="vector-effect: non-scaling-stroke; opacity: 1; stroke-width: 0px; fill: rgb(220, 20, 60); fill-opacity: 1;"/></g><g class="point"><path d="M398.12,307.69V209.97H409.92V307.69Z" style="vector-effect: non-scaling-stroke; opacity: 1; stroke-width: 0px; fill: rgb(220, 20, 60); fill-opacity: 1;"/></g><g class="point"><path d="M427.62,307.69V228.21H439.42V307.69Z" style="vector-effect: non-scaling-stroke; opacity: 1; stroke-width: 0px; fill: rgb(220, 20, 60); fill-opacity: 1;"/></g><g class="point"><path d="M457.11,307.69V249.93H468.91V307.69Z" style="vector-effect: non-scaling-stroke; opacity: 1; stroke-width: 0px; fill: rgb(220, 20, 60); fill-opacity: 1;"/></g><g class="point"><path d="M486.61,307.69V270.77H498.41V307.69Z" style="vector-effect: non-scaling-stroke; opacity: 1; stroke-width: 0px; fill: rgb(220, 20, 60); fill-opacity: 1;"/></g><g class="point"><path d="M516.11,307.69V285.54H527.91V307.69Z" style="vector-effect: non-scaling-stroke; opacity: 1; stroke-width: 0px; fill: rgb(220, 20, 60); fill-opacity: 1;"/></g><g class="point"><path d="M545.61,307.69V291.62H557.41V307.69Z" style="vector-effect: non-scaling-stroke; opacity: 1; stroke-width: 0px; fill: rgb(220, 20, 60); fill-opacity: 1;"/></g><g class="point"><path d="M575.11,307.69V298.14H586.91V307.69Z" style="vector-effect: non-scaling-stroke; opacity: 1; stroke-width: 0px; fill: rgb(220, 20, 60); fill-opacity: 1;"/></g><g class="point"><path d="M604.61,307.69V303.35H616.41V307.69Z" style="vector-effect: non-scaling-stroke; opacity: 1; stroke-width: 0px; fill: rgb(220, 20, 60); fill-opacity: 1;"/></g><g class="point"><path d="M634.11,307.69V302.48H645.91V307.69Z" style="vector-effect: non-scaling-stroke; opacity: 1; stroke-width: 0px; fill: rgb(220, 20, 60); fill-opacity: 1;"/></g><g class="point"><path d="M663.61,307.69V305.95H675.4V307.69Z" style="vector-effect: non-scaling-stroke; opacity: 1; stroke-width: 0px; fill: rgb(220, 20, 60); fill-opacity: 1;"/></g><g class="point"><path d="M693.1,307.69V307.26H704.9V307.69Z" style="vector-effect: non-scaling-stroke; opacity: 1; stroke-width: 0px; fill: rgb(220, 20, 60); fill-opacity: 1;"/></g><g class="point"><path d="M722.6,307.69V307.26H734.4V307.69Z" style="vector-effect: non-scaling-stroke; opacity: 1; stroke-width: 0px; fill: rgb(220, 20, 60); fill-opacity: 1;"/></g><g class="point"><path d="M0,0Z" style="vector-effect: non-scaling-stroke; opacity: 1; stroke-width: 0px; fill: rgb(220, 20, 60); fill-opacity: 1;"/></g><g class="point"><path d="M781.6,307.69V307.26H793.4V307.69Z" style="vector-effect: non-scaling-stroke; opacity: 1; stroke-width: 0px; fill: rgb(220, 20, 60); fill-opacity: 1;"/></g></g></g></g></g><g class="overplot"/><path class="xlines-above crisp" style="fill: none;" d="M0,0"/><path class="ylines-above crisp" style="fill: none;" d="M0,0"/><g class="overlines-above"/><g class="xaxislayer-above"><g class="xtick"><text text-anchor="middle" x="0" y="533" transform="translate(109.38,0)" style="font-family: 'Open Sans', verdana, arial, sans-serif; font-size: 12px; fill: rgb(42, 63, 95); fill-opacity: 1; white-space: pre; opacity: 1;">0</text></g><g class="xtick"><text text-anchor="middle" x="0" y="533" style="font-family: 'Open Sans', verdana, arial, sans-serif; font-size: 12px; fill: rgb(42, 63, 95); fill-opacity: 1; white-space: pre; opacity: 1;" transform="translate(256.88,0)">50k</text></g><g class="xtick"><text text-anchor="middle" x="0" y="533" style="font-family: 'Open Sans', verdana, arial, sans-serif; font-size: 12px; fill: rgb(42, 63, 95); fill-opacity: 1; white-space: pre; opacity: 1;" transform="translate(404.37,0)">100k</text></g><g class="xtick"><text text-anchor="middle" x="0" y="533" style="font-family: 'Open Sans', verdana, arial, sans-serif; font-size: 12px; fill: rgb(42, 63, 95); fill-opacity: 1; white-space: pre; opacity: 1;" transform="translate(551.86,0)">150k</text></g><g class="xtick"><text text-anchor="middle" x="0" y="533" style="font-family: 'Open Sans', verdana, arial, sans-serif; font-size: 12px; fill: rgb(42, 63, 95); fill-opacity: 1; white-space: pre; opacity: 1;" transform="translate(699.36,0)">200k</text></g><g class="xtick"><text text-anchor="middle" x="0" y="533" style="font-family: 'Open Sans', verdana, arial, sans-serif; font-size: 12px; fill: rgb(42, 63, 95); fill-opacity: 1; white-space: pre; opacity: 1;" transform="translate(846.85,0)">250k</text></g></g><g class="yaxislayer-above"><g class="ytick"><text text-anchor="end" x="79" y="4.199999999999999" transform="translate(0,519.998)" style="font-family: 'Open Sans', verdana, arial, sans-serif; font-size: 12px; fill: rgb(42, 63, 95); fill-opacity: 1; white-space: pre; opacity: 1;">0</text></g><g class="ytick"><text text-anchor="end" x="79" y="4.199999999999999" style="font-family: 'Open Sans', verdana, arial, sans-serif; font-size: 12px; fill: rgb(42, 63, 95); fill-opacity: 1; white-space: pre; opacity: 1;" transform="translate(0,476.568)">100</text></g><g class="ytick"><text text-anchor="end" x="79" y="4.199999999999999" style="font-family: 'Open Sans', verdana, arial, sans-serif; font-size: 12px; fill: rgb(42, 63, 95); fill-opacity: 1; white-space: pre; opacity: 1;" transform="translate(0,433.13800000000003)">200</text></g><g class="ytick"><text text-anchor="end" x="79" y="4.199999999999999" style="font-family: 'Open Sans', verdana, arial, sans-serif; font-size: 12px; fill: rgb(42, 63, 95); fill-opacity: 1; white-space: pre; opacity: 1;" transform="translate(0,389.698)">300</text></g><g class="ytick"><text text-anchor="end" x="79" y="4.199999999999999" style="font-family: 'Open Sans', verdana, arial, sans-serif; font-size: 12px; fill: rgb(42, 63, 95); fill-opacity: 1; white-space: pre; opacity: 1;" transform="translate(0,346.26800000000003)">400</text></g><g class="ytick"><text text-anchor="end" x="79" y="4.199999999999999" style="font-family: 'Open Sans', verdana, arial, sans-serif; font-size: 12px; fill: rgb(42, 63, 95); fill-opacity: 1; white-space: pre; opacity: 1;" transform="translate(0,302.828)">500</text></g><g class="ytick"><text text-anchor="end" x="79" y="4.199999999999999" style="font-family: 'Open Sans', verdana, arial, sans-serif; font-size: 12px; fill: rgb(42, 63, 95); fill-opacity: 1; white-space: pre; opacity: 1;" transform="translate(0,259.398)">600</text></g><g class="ytick"><text text-anchor="end" x="79" y="4.199999999999999" style="font-family: 'Open Sans', verdana, arial, sans-serif; font-size: 12px; fill: rgb(42, 63, 95); fill-opacity: 1; white-space: pre; opacity: 1;" transform="translate(0,215.968)">700</text></g></g><g class="overaxes-above"/></g><g class="subplot x2y2"><g class="layer-subplot"><g class="shapelayer"/><g class="imagelayer"/></g><g class="minor-gridlayer"><g class="x2"/><g class="y2"/></g><g class="gridlayer"><g class="x2"><path class="x2grid crisp" transform="translate(256.88,0)" d="M0,100v108.10799999999999" style="stroke: rgb(255, 255, 255); stroke-opacity: 1; stroke-width: 1px;"/><path class="x2grid crisp" transform="translate(404.37,0)" d="M0,100v108.10799999999999" style="stroke: rgb(255, 255, 255); stroke-opacity: 1; stroke-width: 1px;"/><path class="x2grid crisp" transform="translate(551.86,0)" d="M0,100v108.10799999999999" style="stroke: rgb(255, 255, 255); stroke-opacity: 1; stroke-width: 1px;"/><path class="x2grid crisp" transform="translate(699.36,0)" d="M0,100v108.10799999999999" style="stroke: rgb(255, 255, 255); stroke-opacity: 1; stroke-width: 1px;"/><path class="x2grid crisp" transform="translate(846.85,0)" d="M0,100v108.10799999999999" style="stroke: rgb(255, 255, 255); stroke-opacity: 1; stroke-width: 1px;"/></g><g class="y2"/></g><g class="zerolinelayer"><path class="x2zl zl crisp" transform="translate(109.38,0)" d="M0,100v108.10799999999999" style="stroke: rgb(255, 255, 255); stroke-opacity: 1; stroke-width: 2px;"/></g><path class="xlines-below"/><path class="ylines-below"/><g class="overlines-below"/><g class="xaxislayer-below"/><g class="yaxislayer-below"/><g class="overaxes-below"/><g class="plot" transform="translate(80,100)" clip-path="url(#clip6dd6afx2y2plot)"><g class="boxlayer mlayer"><g class="trace boxes" style="opacity: 1;"><path class="box" d="M382.75,87.7V74.46M321.73,94.32V67.84H380.05L382.75,74.46L385.46,67.84H441.64V94.32H385.46L382.75,87.7L380.05,94.32ZM321.73,81.08H143.1M441.64,81.08H620.31M143.1,87.7V74.46M620.31,87.7V74.46" style="vector-effect: non-scaling-stroke; stroke-width: 2px; stroke: rgb(65, 105, 225); stroke-opacity: 1; fill: rgb(65, 105, 225); fill-opacity: 0.5;"/><g class="points"><path class="point" transform="translate(71.46,81.08)" d="M3,0A3,3 0 1,1 0,-3A3,3 0 0,1 3,0Z" style="opacity: 1; stroke-width: 0px; fill: rgb(65, 105, 225); fill-opacity: 1;"/><path class="point" transform="translate(79.22,81.08)" d="M3,0A3,3 0 1,1 0,-3A3,3 0 0,1 3,0Z" style="opacity: 1; stroke-width: 0px; fill: rgb(65, 105, 225); fill-opacity: 1;"/><path class="point" transform="translate(109.88,81.08)" d="M3,0A3,3 0 1,1 0,-3A3,3 0 0,1 3,0Z" style="opacity: 1; stroke-width: 0px; fill: rgb(65, 105, 225); fill-opacity: 1;"/><path class="point" transform="translate(110.55,81.08)" d="M3,0A3,3 0 1,1 0,-3A3,3 0 0,1 3,0Z" style="opacity: 1; stroke-width: 0px; fill: rgb(65, 105, 225); fill-opacity: 1;"/><path class="point" transform="translate(113.9,81.08)" d="M3,0A3,3 0 1,1 0,-3A3,3 0 0,1 3,0Z" style="opacity: 1; stroke-width: 0px; fill: rgb(65, 105, 225); fill-opacity: 1;"/><path class="point" transform="translate(124.36,81.08)" d="M3,0A3,3 0 1,1 0,-3A3,3 0 0,1 3,0Z" style="opacity: 1; stroke-width: 0px; fill: rgb(65, 105, 225); fill-opacity: 1;"/><path class="point" transform="translate(129.72,81.08)" d="M3,0A3,3 0 1,1 0,-3A3,3 0 0,1 3,0Z" style="opacity: 1; stroke-width: 0px; fill: rgb(65, 105, 225); fill-opacity: 1;"/><path class="point" transform="translate(131.29,81.08)" d="M3,0A3,3 0 1,1 0,-3A3,3 0 0,1 3,0Z" style="opacity: 1; stroke-width: 0px; fill: rgb(65, 105, 225); fill-opacity: 1;"/><path class="point" transform="translate(132.68,81.08)" d="M3,0A3,3 0 1,1 0,-3A3,3 0 0,1 3,0Z" style="opacity: 1; stroke-width: 0px; fill: rgb(65, 105, 225); fill-opacity: 1;"/><path class="point" transform="translate(134.25,81.08)" d="M3,0A3,3 0 1,1 0,-3A3,3 0 0,1 3,0Z" style="opacity: 1; stroke-width: 0px; fill: rgb(65, 105, 225); fill-opacity: 1;"/><path class="point" transform="translate(134.82,81.08)" d="M3,0A3,3 0 1,1 0,-3A3,3 0 0,1 3,0Z" style="opacity: 1; stroke-width: 0px; fill: rgb(65, 105, 225); fill-opacity: 1;"/><path class="point" transform="translate(139.31,81.08)" d="M3,0A3,3 0 1,1 0,-3A3,3 0 0,1 3,0Z" style="opacity: 1; stroke-width: 0px; fill: rgb(65, 105, 225); fill-opacity: 1;"/><path class="point" transform="translate(140.6,81.08)" d="M3,0A3,3 0 1,1 0,-3A3,3 0 0,1 3,0Z" style="opacity: 1; stroke-width: 0px; fill: rgb(65, 105, 225); fill-opacity: 1;"/><path class="point" transform="translate(626.57,81.08)" d="M3,0A3,3 0 1,1 0,-3A3,3 0 0,1 3,0Z" style="opacity: 1; stroke-width: 0px; fill: rgb(65, 105, 225); fill-opacity: 1;"/><path class="point" transform="translate(631.21,81.08)" d="M3,0A3,3 0 1,1 0,-3A3,3 0 0,1 3,0Z" style="opacity: 1; stroke-width: 0px; fill: rgb(65, 105, 225); fill-opacity: 1;"/><path class="point" transform="translate(631.81,81.08)" d="M3,0A3,3 0 1,1 0,-3A3,3 0 0,1 3,0Z" style="opacity: 1; stroke-width: 0px; fill: rgb(65, 105, 225); fill-opacity: 1;"/><path class="point" transform="translate(636.38,81.08)" d="M3,0A3,3 0 1,1 0,-3A3,3 0 0,1 3,0Z" style="opacity: 1; stroke-width: 0px; fill: rgb(65, 105, 225); fill-opacity: 1;"/><path class="point" transform="translate(636.94,81.08)" d="M3,0A3,3 0 1,1 0,-3A3,3 0 0,1 3,0Z" style="opacity: 1; stroke-width: 0px; fill: rgb(65, 105, 225); fill-opacity: 1;"/><path class="point" transform="translate(639.01,81.08)" d="M3,0A3,3 0 1,1 0,-3A3,3 0 0,1 3,0Z" style="opacity: 1; stroke-width: 0px; fill: rgb(65, 105, 225); fill-opacity: 1;"/><path class="point" transform="translate(639.62,81.08)" d="M3,0A3,3 0 1,1 0,-3A3,3 0 0,1 3,0Z" style="opacity: 1; stroke-width: 0px; fill: rgb(65, 105, 225); fill-opacity: 1;"/><path class="point" transform="translate(655.68,81.08)" d="M3,0A3,3 0 1,1 0,-3A3,3 0 0,1 3,0Z" style="opacity: 1; stroke-width: 0px; fill: rgb(65, 105, 225); fill-opacity: 1;"/><path class="point" transform="translate(656.8,81.08)" d="M3,0A3,3 0 1,1 0,-3A3,3 0 0,1 3,0Z" style="opacity: 1; stroke-width: 0px; fill: rgb(65, 105, 225); fill-opacity: 1;"/><path class="point" transform="translate(656.81,81.08)" d="M3,0A3,3 0 1,1 0,-3A3,3 0 0,1 3,0Z" style="opacity: 1; stroke-width: 0px; fill: rgb(65, 105, 225); fill-opacity: 1;"/><path class="point" transform="translate(657.05,81.08)" d="M3,0A3,3 0 1,1 0,-3A3,3 0 0,1 3,0Z" style="opacity: 1; stroke-width: 0px; fill: rgb(65, 105, 225); fill-opacity: 1;"/><path class="point" transform="translate(661.68,81.08)" d="M3,0A3,3 0 1,1 0,-3A3,3 0 0,1 3,0Z" style="opacity: 1; stroke-width: 0px; fill: rgb(65, 105, 225); fill-opacity: 1;"/><path class="point" transform="translate(682.88,81.08)" d="M3,0A3,3 0 1,1 0,-3A3,3 0 0,1 3,0Z" style="opacity: 1; stroke-width: 0px; fill: rgb(65, 105, 225); fill-opacity: 1;"/></g></g><g class="trace boxes" style="opacity: 1;"><path class="box" d="M383.21,33.65V20.41M335.28,40.27V13.78H379.16L383.21,20.41L387.27,13.78H436.49V40.27H387.27L383.21,33.65L379.16,40.27ZM335.28,27.03H185.23M436.49,27.03H587.85M185.23,33.65V20.41M587.85,33.65V20.41" style="vector-effect: non-scaling-stroke; stroke-width: 2px; stroke: rgb(220, 20, 60); stroke-opacity: 1; fill: rgb(220, 20, 60); fill-opacity: 0.5;"/><g class="points"><path class="point" transform="translate(40.5,27.03)" d="M3,0A3,3 0 1,1 0,-3A3,3 0 0,1 3,0Z" style="opacity: 1; stroke-width: 0px; fill: rgb(220, 20, 60); fill-opacity: 1;"/><path class="point" transform="translate(66.14,27.03)" d="M3,0A3,3 0 1,1 0,-3A3,3 0 0,1 3,0Z" style="opacity: 1; stroke-width: 0px; fill: rgb(220, 20, 60); fill-opacity: 1;"/><path class="point" transform="translate(98.71,27.03)" d="M3,0A3,3 0 1,1 0,-3A3,3 0 0,1 3,0Z" style="opacity: 1; stroke-width: 0px; fill: rgb(220, 20, 60); fill-opacity: 1;"/><path class="point" transform="translate(100.31,27.03)" d="M3,0A3,3 0 1,1 0,-3A3,3 0 0,1 3,0Z" style="opacity: 1; stroke-width: 0px; fill: rgb(220, 20, 60); fill-opacity: 1;"/><path class="point" transform="translate(111.26,27.03)" d="M3,0A3,3 0 1,1 0,-3A3,3 0 0,1 3,0Z" style="opacity: 1; stroke-width: 0px; fill: rgb(220, 20, 60); fill-opacity: 1;"/><path class="point" transform="translate(112.22,27.03)" d="M3,0A3,3 0 1,1 0,-3A3,3 0 0,1 3,0Z" style="opacity: 1; stroke-width: 0px; fill: rgb(220, 20, 60); fill-opacity: 1;"/><path class="point" transform="translate(116.71,27.03)" d="M3,0A3,3 0 1,1 0,-3A3,3 0 0,1 3,0Z" style="opacity: 1; stroke-width: 0px; fill: rgb(220, 20, 60); fill-opacity: 1;"/><path class="point" transform="translate(128.39,27.03)" d="M3,0A3,3 0 1,1 0,-3A3,3 0 0,1 3,0Z" style="opacity: 1; stroke-width: 0px; fill: rgb(220, 20, 60); fill-opacity: 1;"/><path class="point" transform="translate(137.25,27.03)" d="M3,0A3,3 0 1,1 0,-3A3,3 0 0,1 3,0Z" style="opacity: 1; stroke-width: 0px; fill: rgb(220, 20, 60); fill-opacity: 1;"/><path class="point" transform="translate(142.48,27.03)" d="M3,0A3,3 0 1,1 0,-3A3,3 0 0,1 3,0Z" style="opacity: 1; stroke-width: 0px; fill: rgb(220, 20, 60); fill-opacity: 1;"/><path class="point" transform="translate(145.45,27.03)" d="M3,0A3,3 0 1,1 0,-3A3,3 0 0,1 3,0Z" style="opacity: 1; stroke-width: 0px; fill: rgb(220, 20, 60); fill-opacity: 1;"/><path class="point" transform="translate(150.08,27.03)" d="M3,0A3,3 0 1,1 0,-3A3,3 0 0,1 3,0Z" style="opacity: 1; stroke-width: 0px; fill: rgb(220, 20, 60); fill-opacity: 1;"/><path class="point" transform="translate(151.72,27.03)" d="M3,0A3,3 0 1,1 0,-3A3,3 0 0,1 3,0Z" style="opacity: 1; stroke-width: 0px; fill: rgb(220, 20, 60); fill-opacity: 1;"/><path class="point" transform="translate(153.74,27.03)" d="M3,0A3,3 0 1,1 0,-3A3,3 0 0,1 3,0Z" style="opacity: 1; stroke-width: 0px; fill: rgb(220, 20, 60); fill-opacity: 1;"/><path class="point" transform="translate(158.51,27.03)" d="M3,0A3,3 0 1,1 0,-3A3,3 0 0,1 3,0Z" style="opacity: 1; stroke-width: 0px; fill: rgb(220, 20, 60); fill-opacity: 1;"/><path class="point" transform="translate(159.24,27.03)" d="M3,0A3,3 0 1,1 0,-3A3,3 0 0,1 3,0Z" style="opacity: 1; stroke-width: 0px; fill: rgb(220, 20, 60); fill-opacity: 1;"/><path class="point" transform="translate(160.07,27.03)" d="M3,0A3,3 0 1,1 0,-3A3,3 0 0,1 3,0Z" style="opacity: 1; stroke-width: 0px; fill: rgb(220, 20, 60); fill-opacity: 1;"/><path class="point" transform="translate(160.89,27.03)" d="M3,0A3,3 0 1,1 0,-3A3,3 0 0,1 3,0Z" style="opacity: 1; stroke-width: 0px; fill: rgb(220, 20, 60); fill-opacity: 1;"/><path class="point" transform="translate(162.55,27.03)" d="M3,0A3,3 0 1,1 0,-3A3,3 0 0,1 3,0Z" style="opacity: 1; stroke-width: 0px; fill: rgb(220, 20, 60); fill-opacity: 1;"/><path class="point" transform="translate(163.52,27.03)" d="M3,0A3,3 0 1,1 0,-3A3,3 0 0,1 3,0Z" style="opacity: 1; stroke-width: 0px; fill: rgb(220, 20, 60); fill-opacity: 1;"/><path class="point" transform="translate(164.35,27.03)" d="M3,0A3,3 0 1,1 0,-3A3,3 0 0,1 3,0Z" style="opacity: 1; stroke-width: 0px; fill: rgb(220, 20, 60); fill-opacity: 1;"/><path class="point" transform="translate(166.22,27.03)" d="M3,0A3,3 0 1,1 0,-3A3,3 0 0,1 3,0Z" style="opacity: 1; stroke-width: 0px; fill: rgb(220, 20, 60); fill-opacity: 1;"/><path class="point" transform="translate(167.64,27.03)" d="M3,0A3,3 0 1,1 0,-3A3,3 0 0,1 3,0Z" style="opacity: 1; stroke-width: 0px; fill: rgb(220, 20, 60); fill-opacity: 1;"/><path class="point" transform="translate(168.09,27.03)" d="M3,0A3,3 0 1,1 0,-3A3,3 0 0,1 3,0Z" style="opacity: 1; stroke-width: 0px; fill: rgb(220, 20, 60); fill-opacity: 1;"/><path class="point" transform="translate(169.1,27.03)" d="M3,0A3,3 0 1,1 0,-3A3,3 0 0,1 3,0Z" style="opacity: 1; stroke-width: 0px; fill: rgb(220, 20, 60); fill-opacity: 1;"/><path class="point" transform="translate(175.62,27.03)" d="M3,0A3,3 0 1,1 0,-3A3,3 0 0,1 3,0Z" style="opacity: 1; stroke-width: 0px; fill: rgb(220, 20, 60); fill-opacity: 1;"/><path class="point" transform="translate(179.56,27.03)" d="M3,0A3,3 0 1,1 0,-3A3,3 0 0,1 3,0Z" style="opacity: 1; stroke-width: 0px; fill: rgb(220, 20, 60); fill-opacity: 1;"/><path class="point" transform="translate(180.17,27.03)" d="M3,0A3,3 0 1,1 0,-3A3,3 0 0,1 3,0Z" style="opacity: 1; stroke-width: 0px; fill: rgb(220, 20, 60); fill-opacity: 1;"/><path class="point" transform="translate(181.86,27.03)" d="M3,0A3,3 0 1,1 0,-3A3,3 0 0,1 3,0Z" style="opacity: 1; stroke-width: 0px; fill: rgb(220, 20, 60); fill-opacity: 1;"/><path class="point" transform="translate(590.05,27.03)" d="M3,0A3,3 0 1,1 0,-3A3,3 0 0,1 3,0Z" style="opacity: 1; stroke-width: 0px; fill: rgb(220, 20, 60); fill-opacity: 1;"/><path class="point" transform="translate(590.53,27.03)" d="M3,0A3,3 0 1,1 0,-3A3,3 0 0,1 3,0Z" style="opacity: 1; stroke-width: 0px; fill: rgb(220, 20, 60); fill-opacity: 1;"/><path class="point" transform="translate(590.76,27.03)" d="M3,0A3,3 0 1,1 0,-3A3,3 0 0,1 3,0Z" style="opacity: 1; stroke-width: 0px; fill: rgb(220, 20, 60); fill-opacity: 1;"/><path class="point" transform="translate(594.77,27.03)" d="M3,0A3,3 0 1,1 0,-3A3,3 0 0,1 3,0Z" style="opacity: 1; stroke-width: 0px; fill: rgb(220, 20, 60); fill-opacity: 1;"/><path class="point" transform="translate(595.36,27.03)" d="M3,0A3,3 0 1,1 0,-3A3,3 0 0,1 3,0Z" style="opacity: 1; stroke-width: 0px; fill: rgb(220, 20, 60); fill-opacity: 1;"/><path class="point" transform="translate(596.12,27.03)" d="M3,0A3,3 0 1,1 0,-3A3,3 0 0,1 3,0Z" style="opacity: 1; stroke-width: 0px; fill: rgb(220, 20, 60); fill-opacity: 1;"/><path class="point" transform="translate(603.23,27.03)" d="M3,0A3,3 0 1,1 0,-3A3,3 0 0,1 3,0Z" style="opacity: 1; stroke-width: 0px; fill: rgb(220, 20, 60); fill-opacity: 1;"/><path class="point" transform="translate(605.31,27.03)" d="M3,0A3,3 0 1,1 0,-3A3,3 0 0,1 3,0Z" style="opacity: 1; stroke-width: 0px; fill: rgb(220, 20, 60); fill-opacity: 1;"/><path class="point" transform="translate(615.07,27.03)" d="M3,0A3,3 0 1,1 0,-3A3,3 0 0,1 3,0Z" style="opacity: 1; stroke-width: 0px; fill: rgb(220, 20, 60); fill-opacity: 1;"/><path class="point" transform="translate(618.44,27.03)" d="M3,0A3,3 0 1,1 0,-3A3,3 0 0,1 3,0Z" style="opacity: 1; stroke-width: 0px; fill: rgb(220, 20, 60); fill-opacity: 1;"/><path class="point" transform="translate(621.5,27.03)" d="M3,0A3,3 0 1,1 0,-3A3,3 0 0,1 3,0Z" style="opacity: 1; stroke-width: 0px; fill: rgb(220, 20, 60); fill-opacity: 1;"/><path class="point" transform="translate(622.34,27.03)" d="M3,0A3,3 0 1,1 0,-3A3,3 0 0,1 3,0Z" style="opacity: 1; stroke-width: 0px; fill: rgb(220, 20, 60); fill-opacity: 1;"/><path class="point" transform="translate(624.36,27.03)" d="M3,0A3,3 0 1,1 0,-3A3,3 0 0,1 3,0Z" style="opacity: 1; stroke-width: 0px; fill: rgb(220, 20, 60); fill-opacity: 1;"/><path class="point" transform="translate(627.93,27.03)" d="M3,0A3,3 0 1,1 0,-3A3,3 0 0,1 3,0Z" style="opacity: 1; stroke-width: 0px; fill: rgb(220, 20, 60); fill-opacity: 1;"/><path class="point" transform="translate(630.32,27.03)" d="M3,0A3,3 0 1,1 0,-3A3,3 0 0,1 3,0Z" style="opacity: 1; stroke-width: 0px; fill: rgb(220, 20, 60); fill-opacity: 1;"/><path class="point" transform="translate(632.66,27.03)" d="M3,0A3,3 0 1,1 0,-3A3,3 0 0,1 3,0Z" style="opacity: 1; stroke-width: 0px; fill: rgb(220, 20, 60); fill-opacity: 1;"/><path class="point" transform="translate(637.1,27.03)" d="M3,0A3,3 0 1,1 0,-3A3,3 0 0,1 3,0Z" style="opacity: 1; stroke-width: 0px; fill: rgb(220, 20, 60); fill-opacity: 1;"/><path class="point" transform="translate(638.03,27.03)" d="M3,0A3,3 0 1,1 0,-3A3,3 0 0,1 3,0Z" style="opacity: 1; stroke-width: 0px; fill: rgb(220, 20, 60); fill-opacity: 1;"/><path class="point" transform="translate(640.11,27.03)" d="M3,0A3,3 0 1,1 0,-3A3,3 0 0,1 3,0Z" style="opacity: 1; stroke-width: 0px; fill: rgb(220, 20, 60); fill-opacity: 1;"/><path class="point" transform="translate(643.44,27.03)" d="M3,0A3,3 0 1,1 0,-3A3,3 0 0,1 3,0Z" style="opacity: 1; stroke-width: 0px; fill: rgb(220, 20, 60); fill-opacity: 1;"/><path class="point" transform="translate(647.35,27.03)" d="M3,0A3,3 0 1,1 0,-3A3,3 0 0,1 3,0Z" style="opacity: 1; stroke-width: 0px; fill: rgb(220, 20, 60); fill-opacity: 1;"/><path class="point" transform="translate(648.17,27.03)" d="M3,0A3,3 0 1,1 0,-3A3,3 0 0,1 3,0Z" style="opacity: 1; stroke-width: 0px; fill: rgb(220, 20, 60); fill-opacity: 1;"/><path class="point" transform="translate(650.13,27.03)" d="M3,0A3,3 0 1,1 0,-3A3,3 0 0,1 3,0Z" style="opacity: 1; stroke-width: 0px; fill: rgb(220, 20, 60); fill-opacity: 1;"/><path class="point" transform="translate(654.09,27.03)" d="M3,0A3,3 0 1,1 0,-3A3,3 0 0,1 3,0Z" style="opacity: 1; stroke-width: 0px; fill: rgb(220, 20, 60); fill-opacity: 1;"/><path class="point" transform="translate(658.14,27.03)" d="M3,0A3,3 0 1,1 0,-3A3,3 0 0,1 3,0Z" style="opacity: 1; stroke-width: 0px; fill: rgb(220, 20, 60); fill-opacity: 1;"/><path class="point" transform="translate(666.88,27.03)" d="M3,0A3,3 0 1,1 0,-3A3,3 0 0,1 3,0Z" style="opacity: 1; stroke-width: 0px; fill: rgb(220, 20, 60); fill-opacity: 1;"/><path class="point" transform="translate(685.04,27.03)" d="M3,0A3,3 0 1,1 0,-3A3,3 0 0,1 3,0Z" style="opacity: 1; stroke-width: 0px; fill: rgb(220, 20, 60); fill-opacity: 1;"/><path class="point" transform="translate(732.6,27.03)" d="M3,0A3,3 0 1,1 0,-3A3,3 0 0,1 3,0Z" style="opacity: 1; stroke-width: 0px; fill: rgb(220, 20, 60); fill-opacity: 1;"/><path class="point" transform="translate(769.5,27.03)" d="M3,0A3,3 0 1,1 0,-3A3,3 0 0,1 3,0Z" style="opacity: 1; stroke-width: 0px; fill: rgb(220, 20, 60); fill-opacity: 1;"/></g></g></g></g><g class="overplot"/><path class="xlines-above crisp" style="fill: none;" d="M0,0"/><path class="ylines-above crisp" style="fill: none;" d="M0,0"/><g class="overlines-above"/><g class="xaxislayer-above"/><g class="yaxislayer-above"/><g class="overaxes-above"/></g></g><g class="polarlayer"/><g class="smithlayer"/><g class="ternarylayer"/><g class="geolayer"/><g class="funnelarealayer"/><g class="pielayer"/><g class="iciclelayer"/><g class="treemaplayer"/><g class="sunburstlayer"/><g class="glimages"/><defs id="topdefs-6dd6af"><g class="clips"/><clipPath id="legend6dd6af"><rect width="82" height="67" x="0" y="0"/></clipPath></defs><g class="layer-above"><g class="imagelayer"/><g class="shapelayer"/></g><g class="infolayer"><g class="legend" pointer-events="all" transform="translate(906.2,100)"><rect class="bg" shape-rendering="crispEdges" style="stroke: rgb(68, 68, 68); stroke-opacity: 1; fill: rgb(255, 255, 255); fill-opacity: 1; stroke-width: 0px;" width="82" height="67" x="0" y="0"/><g class="scrollbox" transform="" clip-path="url(#legend6dd6af)"><text class="legendtitletext" text-anchor="start" x="2" y="18.2" style="font-family: 'Open Sans', verdana, arial, sans-serif; font-size: 14px; fill: rgb(42, 63, 95); fill-opacity: 1; white-space: pre;">color</text><g class="groups" transform=""><g class="traces" transform="translate(0,32.7)" style="opacity: 1;"><text class="legendtext" text-anchor="start" x="40" y="4.680000000000001" style="font-family: 'Open Sans', verdana, arial, sans-serif; font-size: 12px; fill: rgb(42, 63, 95); fill-opacity: 1; white-space: pre;">Loyal</text><g class="layers" style="opacity: 1;"><g class="legendfill"/><g class="legendlines"/><g class="legendsymbols"><g class="legendpoints"><path class="legendundefined" d="M6,6H-6V-6H6Z" transform="translate(20,0)" style="stroke-width: 0px; fill: rgb(65, 105, 225); fill-opacity: 1;"/></g></g></g><rect class="legendtoggle" x="0" y="-9.5" width="76.28125" height="19" style="fill: rgb(0, 0, 0); fill-opacity: 0;"/></g></g><g class="groups" transform=""><g class="traces" transform="translate(0,51.7)" style="opacity: 1;"><text class="legendtext" text-anchor="start" x="40" y="4.680000000000001" style="font-family: 'Open Sans', verdana, arial, sans-serif; font-size: 12px; fill: rgb(42, 63, 95); fill-opacity: 1; white-space: pre;">Churn</text><g class="layers" style="opacity: 1;"><g class="legendfill"/><g class="legendlines"/><g class="legendsymbols"><g class="legendpoints"><path class="legendundefined" d="M6,6H-6V-6H6Z" transform="translate(20,0)" style="stroke-width: 0px; fill: rgb(220, 20, 60); fill-opacity: 1;"/></g></g></g><rect class="legendtoggle" x="0" y="-9.5" width="76.28125" height="19" style="fill: rgb(0, 0, 0); fill-opacity: 0;"/></g></g></g><rect class="scrollbar" rx="20" ry="3" width="0" height="0" x="0" y="0" style="fill: rgb(128, 139, 164); fill-opacity: 1;"/></g><g class="g-gtitle"><text class="gtitle" x="50" y="50" text-anchor="start" dy="0em" style="font-family: 'Open Sans', verdana, arial, sans-serif; font-size: 17px; fill: rgb(42, 63, 95); opacity: 1; font-weight: normal; white-space: pre;">Distribution of leftover on balance to churn and loyal clients</text></g><g class="g-xtitle"><text class="xtitle" x="485" y="560.8" text-anchor="middle" style="font-family: 'Open Sans', verdana, arial, sans-serif; font-size: 14px; fill: rgb(42, 63, 95); opacity: 1; font-weight: normal; white-space: pre;">Balance</text></g><g class="g-x2title"/><g class="g-ytitle"><text class="ytitle" transform="rotate(-90,31.309375000000003,366.154)" x="31.309375000000003" y="366.154" text-anchor="middle" style="font-family: 'Open Sans', verdana, arial, sans-serif; font-size: 14px; fill: rgb(42, 63, 95); opacity: 1; font-weight: normal; white-space: pre;">Count of customers</text></g><g class="g-y2title"/></g></svg>