<svg class="main-svg" xmlns="http://www.w3.org/2000/svg" xmlns:xlink="http://www.w3.org/1999/xlink" width="800" height="600" style="" viewBox="0 0 800 600"><rect x="0" y="0" width="800" height="600" style="fill: rgb(255, 255, 255); fill-opacity: 1;"/><defs id="defs-b2cb4e"><g class="clips"/><g class="gradients"/><g class="patterns"/></defs><g class="bglayer"/><g class="layer-below"><g class="imagelayer"/><g class="shapelayer"/></g><g class="cartesianlayer"/><g class="polarlayer"/><g class="smithlayer"/><g class="ternarylayer"/><g class="geolayer"/><g class="funnelarealayer"/><g class="pielayer"/><g class="iciclelayer"/><g class="treemaplayer"/><g class="sunburstlayer"><g class="trace sunburst" stroke-linejoin="round" style="opacity: 1;"><g class="slice cursor-pointer"><path class="surface" d="M400,310L505,310A105,105 0,1,0 299.29897987636156,339.73725854981524L400,310A0,0 0,1,1 400,310Z" style="pointer-events: none; stroke-width: 1; fill: rgb(65, 105, 225); fill-opacity: 1; stroke: rgb(255, 255, 255); stroke-opacity: 1;"/><g class="slicetext"><text data-notex="1" class="slicetext" text-anchor="middle" x="0" y="0" style="font-family: 'Open Sans', verdana, arial, sans-serif; font-size: 12px; fill: rgb(255, 255, 255); fill-opacity: 1; white-space: pre;" transform="translate(399.9609375,263.8767974361441)"><tspan class="line" dy="0em" x="0" y="0">Male</tspan><tspan class="line" dy="1.3em" x="0" y="0">54.57%</tspan></text></g></g><g class="slice cursor-pointer"><path class="surface" d="M400,310L299.29897987636156,339.73725854981524A105,105 0,0,0 505,310L400,310A0,0 0,0,1 400,310Z" style="pointer-events: none; stroke-width: 1; fill: rgb(255, 20, 147); fill-opacity: 1; stroke: rgb(255, 255, 255); stroke-opacity: 1;"/><g class="slicetext"><text data-notex="1" class="slicetext" text-anchor="middle" x="0" y="0" style="font-family: 'Open Sans', verdana, arial, sans-serif; font-size: 12px; fill: rgb(255, 255, 255); fill-opacity: 1; white-space: pre;" transform="translate(407.51137762992715,358.92384037544946)"><tspan class="line" dy="0em" x="0" y="0">Female</tspan><tspan class="line" dy="1.3em" x="0" y="0">45.43%</tspan></text></g></g><g class="slice"><path class="surface" d="M505,310L610,310A210,210 0,0,0 198.0102440022546,252.55316830345404L299.0051220011273,281.27658415172704A105,105 0,0,1 505,310Z" style="pointer-events: none; stroke-width: 1; fill: rgb(65, 105, 225); fill-opacity: 1; stroke: rgb(255, 255, 255); stroke-opacity: 1; opacity: 0.7;"/><g class="slicetext"><text data-notex="1" class="slicetext" text-anchor="middle" x="0" y="0" style="font-family: 'Open Sans', verdana, arial, sans-serif; font-size: 12px; fill: rgb(255, 255, 255); fill-opacity: 1; white-space: pre;" transform="translate(421.7119153259085,150.70446352603986)"><tspan class="line" dy="0em" x="0" y="0">Loyal</tspan><tspan class="line" dy="1.3em" x="0" y="0">45.59%</tspan></text></g></g><g class="slice"><path class="surface" d="M299.0051220011273,281.27658415172704L198.0102440022546,252.55316830345404A210,210 0,0,0 198.59795975272309,369.4745170996306L299.29897987636156,339.7372585498153A105,105 0,0,1 299.0051220011273,281.27658415172704Z" style="pointer-events: none; stroke-width: 1; fill: rgb(65, 105, 225); fill-opacity: 1; stroke: rgb(255, 255, 255); stroke-opacity: 1; opacity: 0.7;"/><g class="slicetext"><text data-notex="1" class="slicetext" text-anchor="middle" x="0" y="0" style="font-family: 'Open Sans', verdana, arial, sans-serif; font-size: 12px; fill: rgb(255, 255, 255); fill-opacity: 1; white-space: pre;" transform="translate(235.69359494983462,307.5210171766766)"><tspan class="line" dy="0em" x="0" y="0">Churn</tspan><tspan class="line" dy="1.3em" x="0" y="0">8.98%</tspan></text></g></g><g class="slice"><path class="surface" d="M299.29897987636156,339.73725854981524L198.59795975272309,369.47451709963053A210,210 0,0,0 558.4793931328413,447.7834603725945L479.23969656642066,378.89173018629725A105,105 0,0,1 299.29897987636156,339.73725854981524Z" style="pointer-events: none; stroke-width: 1; fill: rgb(255, 20, 147); fill-opacity: 1; stroke: rgb(255, 255, 255); stroke-opacity: 1; opacity: 0.7;"/><g class="slicetext"><text data-notex="1" class="slicetext" text-anchor="middle" x="0" y="0" style="font-family: 'Open Sans', verdana, arial, sans-serif; font-size: 12px; fill: rgb(255, 255, 255); fill-opacity: 1; white-space: pre;" transform="translate(366.47311366651826,460.5940313214953)"><tspan class="line" dy="0em" x="0" y="0">Loyal</tspan><tspan class="line" dy="1.3em" x="0" y="0">34.04%</tspan></text></g></g><g class="slice"><path class="surface" d="M479.23969656642066,378.89173018629725L558.4793931328413,447.7834603725945A210,210 0,0,0 610,310.0000000000002L505,310.0000000000001A105,105 0,0,1 479.23969656642066,378.89173018629725Z" style="pointer-events: none; stroke-width: 1; fill: rgb(255, 20, 147); fill-opacity: 1; stroke: rgb(255, 255, 255); stroke-opacity: 1; opacity: 0.7;"/><g class="slicetext"><text data-notex="1" class="slicetext" text-anchor="middle" x="0" y="0" style="font-family: 'Open Sans', verdana, arial, sans-serif; font-size: 12px; fill: rgb(255, 255, 255); fill-opacity: 1; white-space: pre;" transform="translate(547.4848818511067,361.85812463908115)"><tspan class="line" dy="0em" x="0" y="0">Churn</tspan><tspan class="line" dy="1.3em" x="0" y="0">11.39%</tspan></text></g></g></g></g><g class="glimages"/><defs id="topdefs-b2cb4e"><g class="clips"/></defs><g class="layer-above"><g class="imagelayer"/><g class="shapelayer"/></g><g class="infolayer"><g class="g-gtitle"><text class="gtitle" x="400" y="50" text-anchor="middle" dy="0em" style="font-family: 'Open Sans', verdana, arial, sans-serif; font-size: 17px; fill: rgb(42, 63, 95); opacity: 1; font-weight: normal; white-space: pre;">Gender distribution to churn and loyal customers</text></g></g></svg>