<svg class="main-svg" xmlns="http://www.w3.org/2000/svg" xmlns:xlink="http://www.w3.org/1999/xlink" width="1000" height="800" style="" viewBox="0 0 1000 800"><rect x="0" y="0" width="1000" height="800" style="fill: rgb(255, 255, 255); fill-opacity: 1;"/><defs id="defs-6bc40f"><g class="clips"/><g class="gradients"/><g class="patterns"/></defs><g class="bglayer"/><g class="layer-below"><g class="imagelayer"/><g class="shapelayer"/></g><g class="cartesianlayer"/><g class="polarlayer"/><g class="smithlayer"/><g class="ternarylayer"/><g class="geolayer"/><g class="funnelarealayer"/><g class="pielayer"/><g class="iciclelayer"/><g class="treemaplayer"/><g class="sunburstlayer"><g class="trace sunburst" stroke-linejoin="round" style="opacity: 1;"><g class="slice cursor-pointer"><path class="surface" d="M500,410L603.3333333333334,410A103.33333333333333,103.33333333333333 0,0,0 428.57131647687123,335.3292497163013L500,410A0,0 0,0,1 500,410Z" style="pointer-events: none; stroke-width: 1; fill: rgb(239, 85, 59); fill-opacity: 1; stroke: rgb(255, 255, 255); stroke-opacity: 1;"/><g class="slicetext"><text data-notex="1" class="slicetext" text-anchor="middle" x="0" y="0" style="font-family: 'Open Sans', verdana, arial, sans-serif; font-size: 12px; fill: rgb(68, 68, 68); fill-opacity: 1; white-space: pre;" transform="translate(521.1117266731598,357.19327107195005)"><tspan class="line" dy="0em" x="0" y="0">Москва</tspan><tspan class="line" dy="1.3em" x="0" y="0">37.15%</tspan></text></g></g><g class="slice cursor-pointer"><path class="surface" d="M500,410L428.57131647687123,335.3292497163013A103.33333333333333,103.33333333333333 0,0,0 484.3455227340387,512.1406633976267L500,410A0,0 0,0,1 500,410Z" style="pointer-events: none; stroke-width: 1; fill: rgb(239, 85, 59); fill-opacity: 1; stroke: rgb(255, 255, 255); stroke-opacity: 1;"/><g class="slicetext"><text data-notex="1" class="slicetext" text-anchor="middle" x="0" y="0" style="font-family: 'Open Sans', verdana, arial, sans-serif; font-size: 12px; fill: rgb(68, 68, 68); fill-opacity: 1; white-space: pre;" transform="translate(448.0148725031952,423.08141836871874)"><tspan class="line" dy="0em" x="0" y="0">другие</tspan><tspan class="line" dy="1.3em" x="0" y="0">35.43%</tspan></text></g></g><g class="slice cursor-pointer"><path class="surface" d="M500,410L484.3455227340387,512.1406633976267A103.33333333333333,103.33333333333333 0,0,0 579.4793004267065,476.03649431533375L500,410A0,0 0,0,1 500,410Z" style="pointer-events: none; stroke-width: 1; fill: rgb(239, 85, 59); fill-opacity: 1; stroke: rgb(255, 255, 255); stroke-opacity: 1;"/><g class="slicetext"><text data-notex="1" class="slicetext" text-anchor="middle" x="0" y="0" style="font-family: 'Open Sans', verdana, arial, sans-serif; font-size: 12px; fill: rgb(68, 68, 68); fill-opacity: 1; white-space: pre;" transform="translate(524.3179914626519,472.88046417307385)scale(0.5616139468070868)"><tspan class="line" dy="0em" x="0" y="0">город-миллионник</tspan><tspan class="line" dy="1.3em" x="0" y="0">16.39%</tspan></text></g></g><g class="slice cursor-pointer"><path class="surface" d="M500,410L579.4793004267065,476.03649431533375A103.33333333333333,103.33333333333333 0,0,0 603.3333333333334,410L500,410A0,0 0,0,1 500,410Z" style="pointer-events: none; stroke-width: 1; fill: rgb(239, 85, 59); fill-opacity: 1; stroke: rgb(255, 255, 255); stroke-opacity: 1;"/><g class="slicetext"><text data-notex="1" class="slicetext" text-anchor="middle" x="0" y="0" style="font-family: 'Open Sans', verdana, arial, sans-serif; font-size: 12px; fill: rgb(68, 68, 68); fill-opacity: 1; white-space: pre;" transform="translate(572.4604223887429,434.640110588218)scale(0.47320200977347443)"><tspan class="line" dy="0em" x="0" y="0">Санкт-Петербург</tspan><tspan class="line" dy="1.3em" x="0" y="0">11.03%</tspan></text></g></g><g class="slice cursor-pointer"><path class="surface" d="M603.3333333333334,410L706.6666666666666,410A206.66666666666666,206.66666666666666 0,0,0 498.4909105570245,203.33884312681252L499.2454552785123,306.6694215634063A103.33333333333333,103.33333333333333 0,0,1 603.3333333333334,410Z" style="pointer-events: none; stroke-width: 1; fill: rgb(99, 110, 250); fill-opacity: 1; stroke: rgb(255, 255, 255); stroke-opacity: 1;"/><g class="slicetext"><text data-notex="1" class="slicetext" text-anchor="middle" x="0" y="0" style="font-family: 'Open Sans', verdana, arial, sans-serif; font-size: 12px; fill: rgb(255, 255, 255); fill-opacity: 1; white-space: pre;" transform="translate(609.1615976451064,296.6943314867701)"><tspan class="line" dy="0em" x="0" y="0">False</tspan><tspan class="line" dy="1.3em" x="0" y="0">25.12%</tspan></text></g></g><g class="slice cursor-pointer"><path class="surface" d="M499.2454552785123,306.6694215634063L498.4909105570245,203.33884312681252A206.66666666666666,206.66666666666666 0,0,0 357.14263295374246,260.65849943260264L428.57131647687123,335.3292497163013A103.33333333333333,103.33333333333333 0,0,1 499.2454552785123,306.6694215634063Z" style="pointer-events: none; stroke-width: 1; fill: rgb(0, 204, 150); fill-opacity: 1; stroke: rgb(255, 255, 255); stroke-opacity: 1;"/><g class="slicetext"><text data-notex="1" class="slicetext" text-anchor="middle" x="0" y="0" style="font-family: 'Open Sans', verdana, arial, sans-serif; font-size: 12px; fill: rgb(68, 68, 68); fill-opacity: 1; white-space: pre;" transform="translate(441.7124194361734,263.05649412777836)"><tspan class="line" dy="0em" x="0" y="0">True</tspan><tspan class="line" dy="1.3em" x="0" y="0">12.03%</tspan></text></g></g><g class="slice cursor-pointer"><path class="surface" d="M428.57131647687123,335.3292497163013L357.14263295374246,260.65849943260264A206.66666666666666,206.66666666666666 0,0,0 319.7629143960767,511.1222234927374L409.88145719803833,460.56111174636874A103.33333333333333,103.33333333333333 0,0,1 428.57131647687123,335.3292497163013Z" style="pointer-events: none; stroke-width: 1; fill: rgb(99, 110, 250); fill-opacity: 1; stroke: rgb(255, 255, 255); stroke-opacity: 1;"/><g class="slicetext"><text data-notex="1" class="slicetext" text-anchor="middle" x="0" y="0" style="font-family: 'Open Sans', verdana, arial, sans-serif; font-size: 12px; fill: rgb(255, 255, 255); fill-opacity: 1; white-space: pre;" transform="translate(346.65879905934776,383.81618774569404)"><tspan class="line" dy="0em" x="0" y="0">False</tspan><tspan class="line" dy="1.3em" x="0" y="0">20.99%</tspan></text></g></g><g class="slice cursor-pointer"><path class="surface" d="M409.88145719803833,460.56111174636874L319.7629143960767,511.1222234927374A206.66666666666666,206.66666666666666 0,0,0 468.6910454680774,614.2813267952533L484.3455227340387,512.1406633976267A103.33333333333333,103.33333333333333 0,0,1 409.88145719803833,460.56111174636874Z" style="pointer-events: none; stroke-width: 1; fill: rgb(0, 204, 150); fill-opacity: 1; stroke: rgb(255, 255, 255); stroke-opacity: 1;"/><g class="slicetext"><text data-notex="1" class="slicetext" text-anchor="middle" x="0" y="0" style="font-family: 'Open Sans', verdana, arial, sans-serif; font-size: 12px; fill: rgb(68, 68, 68); fill-opacity: 1; white-space: pre;" transform="translate(411.70157634440284,534.1130709499346)"><tspan class="line" dy="0em" x="0" y="0">True</tspan><tspan class="line" dy="1.3em" x="0" y="0">14.44%</tspan></text></g></g><g class="slice cursor-pointer"><path class="surface" d="M484.3455227340387,512.1406633976267L468.6910454680774,614.2813267952533A206.66666666666666,206.66666666666666 0,0,0 599.7271807229092,591.0127082173274L549.8635903614546,500.5063541086637A103.33333333333333,103.33333333333333 0,0,1 484.3455227340387,512.1406633976267Z" style="pointer-events: none; stroke-width: 1; fill: rgb(99, 110, 250); fill-opacity: 1; stroke: rgb(255, 255, 255); stroke-opacity: 1;"/><g class="slicetext"><text data-notex="1" class="slicetext" text-anchor="middle" x="0" y="0" style="font-family: 'Open Sans', verdana, arial, sans-serif; font-size: 12px; fill: rgb(255, 255, 255); fill-opacity: 1; white-space: pre;" transform="translate(527.2936556985269,560.6182343421272)"><tspan class="line" dy="0em" x="0" y="0">False</tspan><tspan class="line" dy="1.3em" x="0" y="0">10.43%</tspan></text></g></g><g class="slice cursor-pointer"><path class="surface" d="M549.8635903614546,500.5063541086637L599.7271807229092,591.0127082173274A206.66666666666666,206.66666666666666 0,0,0 658.9586008534129,542.0729886306676L579.4793004267065,476.0364943153338A103.33333333333333,103.33333333333333 0,0,1 549.8635903614546,500.5063541086637Z" style="pointer-events: none; stroke-width: 1; fill: rgb(0, 204, 150); fill-opacity: 1; stroke: rgb(255, 255, 255); stroke-opacity: 1;"/><g class="slicetext"><text data-notex="1" class="slicetext" text-anchor="middle" x="0" y="0" style="font-family: 'Open Sans', verdana, arial, sans-serif; font-size: 12px; fill: rgb(68, 68, 68); fill-opacity: 1; white-space: pre;" transform="translate(610.9639590516306,541.0415380364494)"><tspan class="line" dy="0em" x="0" y="0">True</tspan><tspan class="line" dy="1.3em" x="0" y="0">5.95%</tspan></text></g></g><g class="slice cursor-pointer"><path class="surface" d="M579.4793004267065,476.03649431533375L658.958600853413,542.0729886306675A206.66666666666666,206.66666666666666 0,0,0 701.995140794838,453.6929537383852L600.997570397419,431.8464768691926A103.33333333333333,103.33333333333333 0,0,1 579.4793004267065,476.03649431533375Z" style="pointer-events: none; stroke-width: 1; fill: rgb(99, 110, 250); fill-opacity: 1; stroke: rgb(255, 255, 255); stroke-opacity: 1;"/><g class="slicetext"><text data-notex="1" class="slicetext" text-anchor="middle" x="0" y="0" style="font-family: 'Open Sans', verdana, arial, sans-serif; font-size: 12px; fill: rgb(255, 255, 255); fill-opacity: 1; white-space: pre;" transform="translate(650.0693622414807,479.7904094277706)"><tspan class="line" dy="0em" x="0" y="0">False</tspan><tspan class="line" dy="1.3em" x="0" y="0">7.64%</tspan></text></g></g><g class="slice cursor-pointer"><path class="surface" d="M600.997570397419,431.8464768691926L701.995140794838,453.6929537383852A206.66666666666666,206.66666666666666 0,0,0 706.6666666666666,410.00000000000006L603.3333333333334,410A103.33333333333333,103.33333333333333 0,0,1 600.997570397419,431.8464768691926Z" style="pointer-events: none; stroke-width: 1; fill: rgb(0, 204, 150); fill-opacity: 1; stroke: rgb(255, 255, 255); stroke-opacity: 1;"/><g class="slicetext"><text data-notex="1" class="slicetext" text-anchor="middle" x="0" y="0" style="font-family: 'Open Sans', verdana, arial, sans-serif; font-size: 12px; fill: rgb(68, 68, 68); fill-opacity: 1; white-space: pre;" transform="translate(685.7176565325011,427.26454126818464)scale(0.7852906147728917)"><tspan class="line" dy="0em" x="0" y="0">True</tspan><tspan class="line" dy="1.3em" x="0" y="0">3.39%</tspan></text></g></g><g class="slice"><path class="surface" d="M706.6666666666666,410L810,410A310,310 0,0,0 654.0313708205422,140.9752115452098L602.6875805470281,230.65014103013988A206.66666666666666,206.66666666666666 0,0,1 706.6666666666666,410Z" style="pointer-events: none; stroke-width: 1; fill: rgb(99, 110, 250); fill-opacity: 1; stroke: rgb(255, 255, 255); stroke-opacity: 1; opacity: 0.7;"/><g class="slicetext"><text data-notex="1" class="slicetext" text-anchor="middle" x="0" y="0" style="font-family: 'Open Sans', verdana, arial, sans-serif; font-size: 12px; fill: rgb(255, 255, 255); fill-opacity: 1; white-space: pre;" transform="translate(723.4510293714544,277.1256789186706)"><tspan class="line" dy="0em" x="0" y="0">True</tspan><tspan class="line" dy="1.3em" x="0" y="0">16.72%</tspan></text></g></g><g class="slice"><path class="surface" d="M602.6875805470281,230.65014103013988L654.0313708205422,140.9752115452098A310,310 0,0,0 497.7363658355368,100.00826469021877L498.4909105570245,203.33884312681252A206.66666666666666,206.66666666666666 0,0,1 602.6875805470281,230.65014103013988Z" style="pointer-events: none; stroke-width: 1; fill: rgb(99, 110, 250); fill-opacity: 1; stroke: rgb(255, 255, 255); stroke-opacity: 1; opacity: 0.7;"/><g class="slicetext"><text data-notex="1" class="slicetext" text-anchor="middle" x="0" y="0" style="font-family: 'Open Sans', verdana, arial, sans-serif; font-size: 12px; fill: rgb(255, 255, 255); fill-opacity: 1; white-space: pre;" transform="translate(565.4608004985959,156.80357782620916)"><tspan class="line" dy="0em" x="0" y="0">False</tspan><tspan class="line" dy="1.3em" x="0" y="0">8.39%</tspan></text></g></g><g class="slice"><path class="surface" d="M498.4909105570245,203.33884312681252L497.7363658355368,100.00826469021877A310,310 0,0,0 298.62807596709206,174.3109077380017L365.752050644728,252.87393849200114A206.66666666666666,206.66666666666666 0,0,1 498.4909105570245,203.33884312681252Z" style="pointer-events: none; stroke-width: 1; fill: rgb(0, 204, 150); fill-opacity: 1; stroke: rgb(255, 255, 255); stroke-opacity: 1; opacity: 0.7;"/><g class="slicetext"><text data-notex="1" class="slicetext" text-anchor="middle" x="0" y="0" style="font-family: 'Open Sans', verdana, arial, sans-serif; font-size: 12px; fill: rgb(68, 68, 68); fill-opacity: 1; white-space: pre;" transform="translate(409.6409783441364,164.66552902450658)"><tspan class="line" dy="0em" x="0" y="0">True</tspan><tspan class="line" dy="1.3em" x="0" y="0">11.14%</tspan></text></g></g><g class="slice"><path class="surface" d="M365.752050644728,252.87393849200114L298.62807596709206,174.3109077380017A310,310 0,0,0 285.71394943061364,185.98774914890396L357.14263295374246,260.65849943260264A206.66666666666666,206.66666666666666 0,0,1 365.752050644728,252.87393849200114Z" style="pointer-events: none; stroke-width: 1; fill: rgb(0, 204, 150); fill-opacity: 1; stroke: rgb(255, 255, 255); stroke-opacity: 1; opacity: 0.7;"/><g class="slicetext"><text data-notex="1" class="slicetext" text-anchor="middle" x="0" y="0" style="font-family: 'Open Sans', verdana, arial, sans-serif; font-size: 12px; fill: rgb(68, 68, 68); fill-opacity: 1; white-space: pre;" transform="translate(297.75489047527026,185.23286927339598)scale(0.33481916417113494)"><tspan class="line" dy="0em" x="0" y="0">False</tspan><tspan class="line" dy="1.3em" x="0" y="0">0.89%</tspan></text></g></g><g class="slice"><path class="surface" d="M357.14263295374246,260.65849943260264L285.71394943061364,185.98774914890396A310,310 0,0,0 191.60075489075348,378.5372344501174L294.4005032605023,389.024822966745A206.66666666666666,206.66666666666666 0,0,1 357.14263295374246,260.65849943260264Z" style="pointer-events: none; stroke-width: 1; fill: rgb(99, 110, 250); fill-opacity: 1; stroke: rgb(255, 255, 255); stroke-opacity: 1; opacity: 0.7;"/><g class="slicetext"><text data-notex="1" class="slicetext" text-anchor="middle" x="0" y="0" style="font-family: 'Open Sans', verdana, arial, sans-serif; font-size: 12px; fill: rgb(255, 255, 255); fill-opacity: 1; white-space: pre;" transform="translate(267.86779639648637,293.254204590144)"><tspan class="line" dy="0em" x="0" y="0">True</tspan><tspan class="line" dy="1.3em" x="0" y="0">11.24%</tspan></text></g></g><g class="slice"><path class="surface" d="M294.4005032605023,389.024822966745L191.60075489075348,378.5372344501174A310,310 0,0,0 229.64437159411506,561.6833352391061L319.7629143960767,511.1222234927374A206.66666666666666,206.66666666666666 0,0,1 294.4005032605023,389.024822966745Z" style="pointer-events: none; stroke-width: 1; fill: rgb(99, 110, 250); fill-opacity: 1; stroke: rgb(255, 255, 255); stroke-opacity: 1; opacity: 0.7;"/><g class="slicetext"><text data-notex="1" class="slicetext" text-anchor="middle" x="0" y="0" style="font-family: 'Open Sans', verdana, arial, sans-serif; font-size: 12px; fill: rgb(255, 255, 255); fill-opacity: 1; white-space: pre;" transform="translate(247.0268710159716,459.2354792580547)"><tspan class="line" dy="0em" x="0" y="0">False</tspan><tspan class="line" dy="1.3em" x="0" y="0">9.76%</tspan></text></g></g><g class="slice"><path class="surface" d="M319.7629143960767,511.1222234927374L229.64437159411506,561.6833352391061A310,310 0,0,0 412.69708215726905,707.4528543082843L441.7980547715127,608.3019028721894A206.66666666666666,206.66666666666666 0,0,1 319.7629143960767,511.1222234927374Z" style="pointer-events: none; stroke-width: 1; fill: rgb(0, 204, 150); fill-opacity: 1; stroke: rgb(255, 255, 255); stroke-opacity: 1; opacity: 0.7;"/><g class="slicetext"><text data-notex="1" class="slicetext" text-anchor="middle" x="0" y="0" style="font-family: 'Open Sans', verdana, arial, sans-serif; font-size: 12px; fill: rgb(68, 68, 68); fill-opacity: 1; white-space: pre;" transform="translate(339.03458896815187,608.7814858501756)"><tspan class="line" dy="0em" x="0" y="0">True</tspan><tspan class="line" dy="1.3em" x="0" y="0">12.32%</tspan></text></g></g><g class="slice"><path class="surface" d="M441.7980547715127,608.3019028721894L412.69708215726905,707.4528543082843A310,310 0,0,0 453.0365682021161,716.4219901928801L468.6910454680774,614.2813267952533A206.66666666666666,206.66666666666666 0,0,1 441.7980547715127,608.3019028721894Z" style="pointer-events: none; stroke-width: 1; fill: rgb(0, 204, 150); fill-opacity: 1; stroke: rgb(255, 255, 255); stroke-opacity: 1; opacity: 0.7;"/><g class="slicetext"><text data-notex="1" class="slicetext" text-anchor="middle" x="0" y="0" style="font-family: 'Open Sans', verdana, arial, sans-serif; font-size: 12px; fill: rgb(68, 68, 68); fill-opacity: 1; white-space: pre;" transform="translate(436.89162232103433,691.1696664387192)scale(0.7659729698009794)"><tspan class="line" dy="0em" x="0" y="0">False</tspan><tspan class="line" dy="1.3em" x="0" y="0">2.12%</tspan></text></g></g><g class="slice"><path class="surface" d="M468.6910454680774,614.2813267952533L453.0365682021161,716.4219901928801A310,310 0,0,0 565.2841204959651,713.0478239668919L543.52274699731,612.0318826445946A206.66666666666666,206.66666666666666 0,0,1 468.6910454680774,614.2813267952533Z" style="pointer-events: none; stroke-width: 1; fill: rgb(99, 110, 250); fill-opacity: 1; stroke: rgb(255, 255, 255); stroke-opacity: 1; opacity: 0.7;"/><g class="slicetext"><text data-notex="1" class="slicetext" text-anchor="middle" x="0" y="0" style="font-family: 'Open Sans', verdana, arial, sans-serif; font-size: 12px; fill: rgb(255, 255, 255); fill-opacity: 1; white-space: pre;" transform="translate(507.84697525378334,669.0381776325016)"><tspan class="line" dy="0em" x="0" y="0">True</tspan><tspan class="line" dy="1.3em" x="0" y="0">5.80%</tspan></text></g></g><g class="slice"><path class="surface" d="M543.52274699731,612.0318826445946L565.2841204959651,713.0478239668919A310,310 0,0,0 649.5907710843637,681.5190623259912L599.7271807229092,591.0127082173274A206.66666666666666,206.66666666666666 0,0,1 543.52274699731,612.0318826445946Z" style="pointer-events: none; stroke-width: 1; fill: rgb(99, 110, 250); fill-opacity: 1; stroke: rgb(255, 255, 255); stroke-opacity: 1; opacity: 0.7;"/><g class="slicetext"><text data-notex="1" class="slicetext" text-anchor="middle" x="0" y="0" style="font-family: 'Open Sans', verdana, arial, sans-serif; font-size: 12px; fill: rgb(255, 255, 255); fill-opacity: 1; white-space: pre;" transform="translate(594.7828855380887,660.2454180324688)"><tspan class="line" dy="0em" x="0" y="0">False</tspan><tspan class="line" dy="1.3em" x="0" y="0">4.64%</tspan></text></g></g><g class="slice"><path class="surface" d="M599.7271807229092,591.0127082173274L649.5907710843637,681.5190623259912A310,310 0,0,0 729.8829500086154,617.9755497536584L653.2553000057436,548.6503665024389A206.66666666666666,206.66666666666666 0,0,1 599.7271807229092,591.0127082173274Z" style="pointer-events: none; stroke-width: 1; fill: rgb(0, 204, 150); fill-opacity: 1; stroke: rgb(255, 255, 255); stroke-opacity: 1; opacity: 0.7;"/><g class="slicetext"><text data-notex="1" class="slicetext" text-anchor="middle" x="0" y="0" style="font-family: 'Open Sans', verdana, arial, sans-serif; font-size: 12px; fill: rgb(68, 68, 68); fill-opacity: 1; white-space: pre;" transform="translate(665.0711943038099,615.3249860080527)"><tspan class="line" dy="0em" x="0" y="0">True</tspan><tspan class="line" dy="1.3em" x="0" y="0">5.28%</tspan></text></g></g><g class="slice"><path class="surface" d="M653.2553000057436,548.6503665024389L729.8829500086154,617.9755497536584A310,310 0,0,0 738.4379012801194,608.1094829460015L658.9586008534129,542.0729886306676A206.66666666666666,206.66666666666666 0,0,1 653.2553000057436,548.6503665024389Z" style="pointer-events: none; stroke-width: 1; fill: rgb(0, 204, 150); fill-opacity: 1; stroke: rgb(255, 255, 255); stroke-opacity: 1; opacity: 0.7;"/><g class="slicetext"><text data-notex="1" class="slicetext" text-anchor="middle" x="0" y="0" style="font-family: 'Open Sans', verdana, arial, sans-serif; font-size: 12px; fill: rgb(68, 68, 68); fill-opacity: 1; white-space: pre;" transform="translate(729.3712285854302,608.0627197201808)scale(0.2528551609509784)"><tspan class="line" dy="0em" x="0" y="0">False</tspan><tspan class="line" dy="1.3em" x="0" y="0">0.67%</tspan></text></g></g><g class="slice"><path class="surface" d="M658.958600853413,542.0729886306675L738.4379012801195,608.1094829460013A310,310 0,0,0 788.6397257967636,523.0800985672064L692.426483864509,485.3867323781376A206.66666666666666,206.66666666666666 0,0,1 658.958600853413,542.0729886306675Z" style="pointer-events: none; stroke-width: 1; fill: rgb(99, 110, 250); fill-opacity: 1; stroke: rgb(255, 255, 255); stroke-opacity: 1; opacity: 0.7;"/><g class="slicetext"><text data-notex="1" class="slicetext" text-anchor="middle" x="0" y="0" style="font-family: 'Open Sans', verdana, arial, sans-serif; font-size: 12px; fill: rgb(255, 255, 255); fill-opacity: 1; white-space: pre;" transform="translate(730.2331191998326,542.6492975983878)"><tspan class="line" dy="0em" x="0" y="0">True</tspan><tspan class="line" dy="1.3em" x="0" y="0">5.09%</tspan></text></g></g><g class="slice"><path class="surface" d="M692.426483864509,485.3867323781376L788.6397257967636,523.0800985672064A310,310 0,0,0 802.992711192257,475.53943060757786L701.995140794838,453.6929537383852A206.66666666666666,206.66666666666666 0,0,1 692.426483864509,485.3867323781376Z" style="pointer-events: none; stroke-width: 1; fill: rgb(99, 110, 250); fill-opacity: 1; stroke: rgb(255, 255, 255); stroke-opacity: 1; opacity: 0.7;"/><g class="slicetext"><text data-notex="1" class="slicetext" text-anchor="middle" x="0" y="0" style="font-family: 'Open Sans', verdana, arial, sans-serif; font-size: 12px; fill: rgb(255, 255, 255); fill-opacity: 1; white-space: pre;" transform="translate(774.7266127832712,489.9493072556971)scale(0.9090186833255054)"><tspan class="line" dy="0em" x="0" y="0">False</tspan><tspan class="line" dy="1.3em" x="0" y="0">2.55%</tspan></text></g></g><g class="slice"><path class="surface" d="M701.995140794838,453.6929537383852L802.992711192257,475.53943060757786A310,310 0,0,0 809.9581607610298,415.09299299426027L706.6387738406866,413.3953286628402A206.66666666666666,206.66666666666666 0,0,1 701.995140794838,453.6929537383852Z" style="pointer-events: none; stroke-width: 1; fill: rgb(0, 204, 150); fill-opacity: 1; stroke: rgb(255, 255, 255); stroke-opacity: 1; opacity: 0.7;"/><g class="slicetext"><text data-notex="1" class="slicetext" text-anchor="middle" x="0" y="0" style="font-family: 'Open Sans', verdana, arial, sans-serif; font-size: 12px; fill: rgb(68, 68, 68); fill-opacity: 1; white-space: pre;" transform="translate(780.4008007675508,439.01135628672745)"><tspan class="line" dy="0em" x="0" y="0">True</tspan><tspan class="line" dy="1.3em" x="0" y="0">3.13%</tspan></text></g></g><g class="slice"><path class="surface" d="M706.6387738406866,413.3953286628402L809.9581607610298,415.09299299426027A310,310 0,0,0 810,410.00000000000006L706.6666666666666,410.00000000000006A206.66666666666666,206.66666666666666 0,0,1 706.6387738406866,413.3953286628402Z" style="pointer-events: none; stroke-width: 1; fill: rgb(0, 204, 150); fill-opacity: 1; stroke: rgb(255, 255, 255); stroke-opacity: 1; opacity: 0.7;"/><g class="slicetext"><text data-notex="1" class="slicetext" text-anchor="middle" x="0" y="0" style="font-family: 'Open Sans', verdana, arial, sans-serif; font-size: 12px; fill: rgb(68, 68, 68); fill-opacity: 1; white-space: pre;" transform="translate(807.4598905648938,412.1957730182051)scale(0.09987638342557513)"><tspan class="line" dy="0em" x="0" y="0">False</tspan><tspan class="line" dy="1.3em" x="0" y="0">0.26%</tspan></text></g></g></g></g><g class="glimages"/><defs id="topdefs-6bc40f"><g class="clips"/></defs><g class="layer-above"><g class="imagelayer"/><g class="shapelayer"/></g><g class="infolayer"><g class="g-gtitle"><text class="gtitle" x="500" y="50" text-anchor="middle" dy="0em" style="font-family: 'Open Sans', verdana, arial, sans-serif; font-size: 17px; fill: rgb(42, 63, 95); opacity: 1; font-weight: normal; white-space: pre;">Соотношение соискателей по городам с готовностью переезда и / или командировок</text></g></g></svg>