<svg class="main-svg" xmlns="http://www.w3.org/2000/svg" xmlns:xlink="http://www.w3.org/1999/xlink" width="1000" height="800" style="" viewBox="0 0 1000 800"><rect x="0" y="0" width="1000" height="800" style="fill: rgb(255, 255, 255); fill-opacity: 1;"/><defs id="defs-0c3616"><g class="clips"/><g class="gradients"/><g class="patterns"/></defs><g class="bglayer"/><g class="layer-below"><g class="imagelayer"/><g class="shapelayer"/></g><g class="cartesianlayer"/><g class="polarlayer"/><g class="smithlayer"/><g class="ternarylayer"/><g class="geolayer"/><g class="funnelarealayer"/><g class="pielayer"/><g class="iciclelayer"/><g class="treemaplayer"/><g class="sunburstlayer"><g class="trace sunburst" stroke-linejoin="round" style="opacity: 1;"><g class="slice cursor-pointer"><path class="surface" d="M500,410L603.3333333333334,410A103.33333333333333,103.33333333333333 0,0,0 428.57131647687123,335.3292497163013L500,410A0,0 0,0,1 500,410Z" style="pointer-events: none; stroke-width: 1; fill: rgb(0, 204, 150); fill-opacity: 1; stroke: rgb(255, 255, 255); stroke-opacity: 1;"/><g class="slicetext"><text data-notex="1" class="slicetext" text-anchor="middle" x="0" y="0" style="font-family: 'Open Sans', verdana, arial, sans-serif; font-size: 12px; fill: rgb(68, 68, 68); fill-opacity: 1; white-space: pre;" transform="translate(521.1117266731598,357.19327107195005)"><tspan class="line" dy="0em" x="0" y="0">Москва</tspan><tspan class="line" dy="1.3em" x="0" y="0">37.15%</tspan></text></g></g><g class="slice cursor-pointer"><path class="surface" d="M500,410L428.57131647687123,335.3292497163013A103.33333333333333,103.33333333333333 0,0,0 484.3455227340387,512.1406633976267L500,410A0,0 0,0,1 500,410Z" style="pointer-events: none; stroke-width: 1; fill: rgb(0, 204, 150); fill-opacity: 1; stroke: rgb(255, 255, 255); stroke-opacity: 1;"/><g class="slicetext"><text data-notex="1" class="slicetext" text-anchor="middle" x="0" y="0" style="font-family: 'Open Sans', verdana, arial, sans-serif; font-size: 12px; fill: rgb(68, 68, 68); fill-opacity: 1; white-space: pre;" transform="translate(448.0148725031952,423.08141836871874)"><tspan class="line" dy="0em" x="0" y="0">другие</tspan><tspan class="line" dy="1.3em" x="0" y="0">35.43%</tspan></text></g></g><g class="slice cursor-pointer"><path class="surface" d="M500,410L484.3455227340387,512.1406633976267A103.33333333333333,103.33333333333333 0,0,0 579.4793004267065,476.03649431533375L500,410A0,0 0,0,1 500,410Z" style="pointer-events: none; stroke-width: 1; fill: rgb(0, 204, 150); fill-opacity: 1; stroke: rgb(255, 255, 255); stroke-opacity: 1;"/><g class="slicetext"><text data-notex="1" class="slicetext" text-anchor="middle" x="0" y="0" style="font-family: 'Open Sans', verdana, arial, sans-serif; font-size: 12px; fill: rgb(68, 68, 68); fill-opacity: 1; white-space: pre;" transform="translate(524.3179914626519,472.88046417307385)scale(0.5616139468070868)"><tspan class="line" dy="0em" x="0" y="0">город-миллионник</tspan><tspan class="line" dy="1.3em" x="0" y="0">16.39%</tspan></text></g></g><g class="slice cursor-pointer"><path class="surface" d="M500,410L579.4793004267065,476.03649431533375A103.33333333333333,103.33333333333333 0,0,0 603.3333333333334,410L500,410A0,0 0,0,1 500,410Z" style="pointer-events: none; stroke-width: 1; fill: rgb(0, 204, 150); fill-opacity: 1; stroke: rgb(255, 255, 255); stroke-opacity: 1;"/><g class="slicetext"><text data-notex="1" class="slicetext" text-anchor="middle" x="0" y="0" style="font-family: 'Open Sans', verdana, arial, sans-serif; font-size: 12px; fill: rgb(68, 68, 68); fill-opacity: 1; white-space: pre;" transform="translate(572.4604223887429,434.640110588218)scale(0.47320200977347443)"><tspan class="line" dy="0em" x="0" y="0">Санкт-Петербург</tspan><tspan class="line" dy="1.3em" x="0" y="0">11.03%</tspan></text></g></g><g class="slice cursor-pointer"><path class="surface" d="M603.3333333333334,410L706.6666666666666,410A206.66666666666666,206.66666666666666 0,0,0 431.14001591044985,215.14258109505298L465.5700079552249,312.5712905475265A103.33333333333333,103.33333333333333 0,0,1 603.3333333333334,410Z" style="pointer-events: none; stroke-width: 1; fill: rgb(65, 105, 225); fill-opacity: 1; stroke: rgb(255, 255, 255); stroke-opacity: 1;"/><g class="slicetext"><text data-notex="1" class="slicetext" text-anchor="middle" x="0" y="0" style="font-family: 'Open Sans', verdana, arial, sans-serif; font-size: 12px; fill: rgb(255, 255, 255); fill-opacity: 1; white-space: pre;" transform="translate(589.4596158410509,280.14498031866947)"><tspan class="line" dy="0em" x="0" y="0">М</tspan><tspan class="line" dy="1.3em" x="0" y="0">30.41%</tspan></text></g></g><g class="slice cursor-pointer"><path class="surface" d="M465.5700079552249,312.5712905475265L431.14001591044985,215.14258109505298A206.66666666666666,206.66666666666666 0,0,0 357.14263295374246,260.65849943260264L428.57131647687123,335.3292497163013A103.33333333333333,103.33333333333333 0,0,1 465.5700079552249,312.5712905475265Z" style="pointer-events: none; stroke-width: 1; fill: rgb(255, 20, 147); fill-opacity: 1; stroke: rgb(255, 255, 255); stroke-opacity: 1;"/><g class="slicetext"><text data-notex="1" class="slicetext" text-anchor="middle" x="0" y="0" style="font-family: 'Open Sans', verdana, arial, sans-serif; font-size: 12px; fill: rgb(255, 255, 255); fill-opacity: 1; white-space: pre;" transform="translate(410.48899111462936,261.2365340686674)"><tspan class="line" dy="0em" x="0" y="0">Ж</tspan><tspan class="line" dy="1.3em" x="0" y="0">6.74%</tspan></text></g></g><g class="slice cursor-pointer"><path class="surface" d="M428.57131647687123,335.3292497163013L357.14263295374246,260.65849943260264A206.66666666666666,206.66666666666666 0,0,0 390.5878331436405,585.3285169472076L445.29391657182026,497.6642584736038A103.33333333333333,103.33333333333333 0,0,1 428.57131647687123,335.3292497163013Z" style="pointer-events: none; stroke-width: 1; fill: rgb(65, 105, 225); fill-opacity: 1; stroke: rgb(255, 255, 255); stroke-opacity: 1;"/><g class="slicetext"><text data-notex="1" class="slicetext" text-anchor="middle" x="0" y="0" style="font-family: 'Open Sans', verdana, arial, sans-serif; font-size: 12px; fill: rgb(255, 255, 255); fill-opacity: 1; white-space: pre;" transform="translate(345.7768530184035,422.57826224404647)"><tspan class="line" dy="0em" x="0" y="0">М</tspan><tspan class="line" dy="1.3em" x="0" y="0">28.97%</tspan></text></g></g><g class="slice cursor-pointer"><path class="surface" d="M445.29391657182026,497.6642584736038L390.5878331436405,585.3285169472076A206.66666666666666,206.66666666666666 0,0,0 468.6910454680774,614.2813267952533L484.3455227340387,512.1406633976267A103.33333333333333,103.33333333333333 0,0,1 445.29391657182026,497.6642584736038Z" style="pointer-events: none; stroke-width: 1; fill: rgb(255, 20, 147); fill-opacity: 1; stroke: rgb(255, 255, 255); stroke-opacity: 1;"/><g class="slicetext"><text data-notex="1" class="slicetext" text-anchor="middle" x="0" y="0" style="font-family: 'Open Sans', verdana, arial, sans-serif; font-size: 12px; fill: rgb(255, 255, 255); fill-opacity: 1; white-space: pre;" transform="translate(440.1749420532328,567.9742460789406)"><tspan class="line" dy="0em" x="0" y="0">Ж</tspan><tspan class="line" dy="1.3em" x="0" y="0">6.46%</tspan></text></g></g><g class="slice cursor-pointer"><path class="surface" d="M484.3455227340387,512.1406633976267L468.6910454680774,614.2813267952533A206.66666666666666,206.66666666666666 0,0,0 628.5820998981734,571.7954099994412L564.2910499490868,490.8977049997206A103.33333333333333,103.33333333333333 0,0,1 484.3455227340387,512.1406633976267Z" style="pointer-events: none; stroke-width: 1; fill: rgb(65, 105, 225); fill-opacity: 1; stroke: rgb(255, 255, 255); stroke-opacity: 1;"/><g class="slicetext"><text data-notex="1" class="slicetext" text-anchor="middle" x="0" y="0" style="font-family: 'Open Sans', verdana, arial, sans-serif; font-size: 12px; fill: rgb(255, 255, 255); fill-opacity: 1; white-space: pre;" transform="translate(539.7659429599803,556.497053278707)"><tspan class="line" dy="0em" x="0" y="0">М</tspan><tspan class="line" dy="1.3em" x="0" y="0">13.11%</tspan></text></g></g><g class="slice cursor-pointer"><path class="surface" d="M564.2910499490868,490.8977049997206L628.5820998981734,571.7954099994412A206.66666666666666,206.66666666666666 0,0,0 658.958600853413,542.0729886306675L579.4793004267065,476.03649431533375A103.33333333333333,103.33333333333333 0,0,1 564.2910499490868,490.8977049997206Z" style="pointer-events: none; stroke-width: 1; fill: rgb(255, 20, 147); fill-opacity: 1; stroke: rgb(255, 255, 255); stroke-opacity: 1;"/><g class="slicetext"><text data-notex="1" class="slicetext" text-anchor="middle" x="0" y="0" style="font-family: 'Open Sans', verdana, arial, sans-serif; font-size: 12px; fill: rgb(255, 255, 255); fill-opacity: 1; white-space: pre;" transform="translate(631.0309855294922,541.4270467028008)scale(0.7619052496636348)"><tspan class="line" dy="0em" x="0" y="0">Ж</tspan><tspan class="line" dy="1.3em" x="0" y="0">3.28%</tspan></text></g></g><g class="slice cursor-pointer"><path class="surface" d="M579.4793004267065,476.03649431533375L658.958600853413,542.0729886306675A206.66666666666666,206.66666666666666 0,0,0 703.9308560896303,443.51592227078976L601.9654280448151,426.75796113539485A103.33333333333333,103.33333333333333 0,0,1 579.4793004267065,476.03649431533375Z" style="pointer-events: none; stroke-width: 1; fill: rgb(65, 105, 225); fill-opacity: 1; stroke: rgb(255, 255, 255); stroke-opacity: 1;"/><g class="slicetext"><text data-notex="1" class="slicetext" text-anchor="middle" x="0" y="0" style="font-family: 'Open Sans', verdana, arial, sans-serif; font-size: 12px; fill: rgb(255, 255, 255); fill-opacity: 1; white-space: pre;" transform="translate(648.9333816540442,474.67244523237383)"><tspan class="line" dy="0em" x="0" y="0">М</tspan><tspan class="line" dy="1.3em" x="0" y="0">8.44%</tspan></text></g></g><g class="slice cursor-pointer"><path class="surface" d="M601.9654280448151,426.75796113539485L703.9308560896303,443.51592227078976A206.66666666666666,206.66666666666666 0,0,0 706.6666666666666,410.00000000000006L603.3333333333334,410A103.33333333333333,103.33333333333333 0,0,1 601.9654280448151,426.75796113539485Z" style="pointer-events: none; stroke-width: 1; fill: rgb(255, 20, 147); fill-opacity: 1; stroke: rgb(255, 255, 255); stroke-opacity: 1;"/><g class="slicetext"><text data-notex="1" class="slicetext" text-anchor="middle" x="0" y="0" style="font-family: 'Open Sans', verdana, arial, sans-serif; font-size: 12px; fill: rgb(255, 255, 255); fill-opacity: 1; white-space: pre;" transform="translate(690.460397353289,423.5168988344399)scale(0.6148262864696702)"><tspan class="line" dy="0em" x="0" y="0">Ж</tspan><tspan class="line" dy="1.3em" x="0" y="0">2.59%</tspan></text></g></g><g class="slice"><path class="surface" d="M706.6666666666666,410L810,410A310,310 0,0,0 582.6560437963656,111.22252691353503L555.104029197577,210.81501794235672A206.66666666666666,206.66666666666666 0,0,1 706.6666666666666,410Z" style="pointer-events: none; stroke-width: 1; fill: rgb(65, 105, 225); fill-opacity: 1; stroke: rgb(255, 255, 255); stroke-opacity: 1; opacity: 0.7;"/><g class="slicetext"><text data-notex="1" class="slicetext" text-anchor="middle" x="0" y="0" style="font-family: 'Open Sans', verdana, arial, sans-serif; font-size: 12px; fill: rgb(255, 255, 255); fill-opacity: 1; white-space: pre;" transform="translate(705.5456165734846,250.26305610329825)"><tspan class="line" dy="0em" x="0" y="0">False</tspan><tspan class="line" dy="1.3em" x="0" y="0">20.70%</tspan></text></g></g><g class="slice"><path class="surface" d="M555.104029197577,210.81501794235672L582.6560437963656,111.22252691353503A310,310 0,0,0 396.71002386567477,117.71387164257948L431.14001591044985,215.14258109505298A206.66666666666666,206.66666666666666 0,0,1 555.104029197577,210.81501794235672Z" style="pointer-events: none; stroke-width: 1; fill: rgb(65, 105, 225); fill-opacity: 1; stroke: rgb(255, 255, 255); stroke-opacity: 1; opacity: 0.7;"/><g class="slicetext"><text data-notex="1" class="slicetext" text-anchor="middle" x="0" y="0" style="font-family: 'Open Sans', verdana, arial, sans-serif; font-size: 12px; fill: rgb(255, 255, 255); fill-opacity: 1; white-space: pre;" transform="translate(490.9480539733439,148.51925039964567)"><tspan class="line" dy="0em" x="0" y="0">True</tspan><tspan class="line" dy="1.3em" x="0" y="0">9.70%</tspan></text></g></g><g class="slice"><path class="surface" d="M431.14001591044985,215.14258109505298L396.71002386567477,117.71387164257948A310,310 0,0,0 314.540883871093,161.59525720171L376.36058924739535,244.39683813447334A206.66666666666666,206.66666666666666 0,0,1 431.14001591044985,215.14258109505298Z" style="pointer-events: none; stroke-width: 1; fill: rgb(255, 20, 147); fill-opacity: 1; stroke: rgb(255, 255, 255); stroke-opacity: 1; opacity: 0.7;"/><g class="slicetext"><text data-notex="1" class="slicetext" text-anchor="middle" x="0" y="0" style="font-family: 'Open Sans', verdana, arial, sans-serif; font-size: 12px; fill: rgb(255, 255, 255); fill-opacity: 1; white-space: pre;" transform="translate(373.00352693551935,168.96395764190856)"><tspan class="line" dy="0em" x="0" y="0">False</tspan><tspan class="line" dy="1.3em" x="0" y="0">4.80%</tspan></text></g></g><g class="slice"><path class="surface" d="M376.36058924739535,244.39683813447334L314.540883871093,161.59525720171A310,310 0,0,0 285.71394943061364,185.98774914890396L357.14263295374246,260.65849943260264A206.66666666666666,206.66666666666666 0,0,1 376.36058924739535,244.39683813447334Z" style="pointer-events: none; stroke-width: 1; fill: rgb(255, 20, 147); fill-opacity: 1; stroke: rgb(255, 255, 255); stroke-opacity: 1; opacity: 0.7;"/><g class="slicetext"><text data-notex="1" class="slicetext" text-anchor="middle" x="0" y="0" style="font-family: 'Open Sans', verdana, arial, sans-serif; font-size: 12px; fill: rgb(255, 255, 255); fill-opacity: 1; white-space: pre;" transform="translate(311.2242223565496,184.61252329293484)scale(0.7037339407814985)"><tspan class="line" dy="0em" x="0" y="0">True</tspan><tspan class="line" dy="1.3em" x="0" y="0">1.94%</tspan></text></g></g><g class="slice"><path class="surface" d="M357.14263295374246,260.65849943260264L285.71394943061364,185.98774914890396A310,310 0,0,0 209.02756663127826,516.9347605761792L306.0183777541855,481.2898403841195A206.66666666666666,206.66666666666666 0,0,1 357.14263295374246,260.65849943260264Z" style="pointer-events: none; stroke-width: 1; fill: rgb(65, 105, 225); fill-opacity: 1; stroke: rgb(255, 255, 255); stroke-opacity: 1; opacity: 0.7;"/><g class="slicetext"><text data-notex="1" class="slicetext" text-anchor="middle" x="0" y="0" style="font-family: 'Open Sans', verdana, arial, sans-serif; font-size: 12px; fill: rgb(255, 255, 255); fill-opacity: 1; white-space: pre;" transform="translate(248.2956298449771,348.3799283032566)"><tspan class="line" dy="0em" x="0" y="0">False</tspan><tspan class="line" dy="1.3em" x="0" y="0">18.46%</tspan></text></g></g><g class="slice"><path class="surface" d="M306.0183777541855,481.2898403841195L209.02756663127826,516.9347605761792A310,310 0,0,0 335.8817497154608,672.9927754208114L390.5878331436405,585.3285169472076A206.66666666666666,206.66666666666666 0,0,1 306.0183777541855,481.2898403841195Z" style="pointer-events: none; stroke-width: 1; fill: rgb(65, 105, 225); fill-opacity: 1; stroke: rgb(255, 255, 255); stroke-opacity: 1; opacity: 0.7;"/><g class="slicetext"><text data-notex="1" class="slicetext" text-anchor="middle" x="0" y="0" style="font-family: 'Open Sans', verdana, arial, sans-serif; font-size: 12px; fill: rgb(255, 255, 255); fill-opacity: 1; white-space: pre;" transform="translate(299.5006882776896,569.6425419727354)"><tspan class="line" dy="0em" x="0" y="0">True</tspan><tspan class="line" dy="1.3em" x="0" y="0">10.52%</tspan></text></g></g><g class="slice"><path class="surface" d="M390.5878331436405,585.3285169472076L335.8817497154608,672.9927754208114A310,310 0,0,0 413.74186493542265,707.7575089484413L442.4945766236151,608.5050059656276A206.66666666666666,206.66666666666666 0,0,1 390.5878331436405,585.3285169472076Z" style="pointer-events: none; stroke-width: 1; fill: rgb(255, 20, 147); fill-opacity: 1; stroke: rgb(255, 255, 255); stroke-opacity: 1; opacity: 0.7;"/><g class="slicetext"><text data-notex="1" class="slicetext" text-anchor="middle" x="0" y="0" style="font-family: 'Open Sans', verdana, arial, sans-serif; font-size: 12px; fill: rgb(255, 255, 255); fill-opacity: 1; white-space: pre;" transform="translate(388.8525281618754,655.5369596277592)"><tspan class="line" dy="0em" x="0" y="0">False</tspan><tspan class="line" dy="1.3em" x="0" y="0">4.39%</tspan></text></g></g><g class="slice"><path class="surface" d="M442.4945766236151,608.5050059656276L413.74186493542265,707.7575089484413A310,310 0,0,0 453.0365682021161,716.4219901928801L468.6910454680774,614.2813267952533A206.66666666666666,206.66666666666666 0,0,1 442.4945766236151,608.5050059656276Z" style="pointer-events: none; stroke-width: 1; fill: rgb(255, 20, 147); fill-opacity: 1; stroke: rgb(255, 255, 255); stroke-opacity: 1; opacity: 0.7;"/><g class="slicetext"><text data-notex="1" class="slicetext" text-anchor="middle" x="0" y="0" style="font-family: 'Open Sans', verdana, arial, sans-serif; font-size: 12px; fill: rgb(255, 255, 255); fill-opacity: 1; white-space: pre;" transform="translate(437.28751206522105,691.8092193565366)scale(0.7470712597287594)"><tspan class="line" dy="0em" x="0" y="0">True</tspan><tspan class="line" dy="1.3em" x="0" y="0">2.07%</tspan></text></g></g><g class="slice"><path class="surface" d="M468.6910454680774,614.2813267952533L453.0365682021161,716.4219901928801A310,310 0,0,0 617.927688887016,696.6933208042475L578.6184592580106,601.128880536165A206.66666666666666,206.66666666666666 0,0,1 468.6910454680774,614.2813267952533Z" style="pointer-events: none; stroke-width: 1; fill: rgb(65, 105, 225); fill-opacity: 1; stroke: rgb(255, 255, 255); stroke-opacity: 1; opacity: 0.7;"/><g class="slicetext"><text data-notex="1" class="slicetext" text-anchor="middle" x="0" y="0" style="font-family: 'Open Sans', verdana, arial, sans-serif; font-size: 12px; fill: rgb(255, 255, 255); fill-opacity: 1; white-space: pre;" transform="translate(530.6507673506221,663.1992022460445)"><tspan class="line" dy="0em" x="0" y="0">False</tspan><tspan class="line" dy="1.3em" x="0" y="0">8.63%</tspan></text></g></g><g class="slice"><path class="surface" d="M578.6184592580106,601.128880536165L617.927688887016,696.6933208042475A310,310 0,0,0 692.87314984726,652.6931149991617L628.5820998981734,571.7954099994412A206.66666666666666,206.66666666666666 0,0,1 578.6184592580106,601.128880536165Z" style="pointer-events: none; stroke-width: 1; fill: rgb(65, 105, 225); fill-opacity: 1; stroke: rgb(255, 255, 255); stroke-opacity: 1; opacity: 0.7;"/><g class="slicetext"><text data-notex="1" class="slicetext" text-anchor="middle" x="0" y="0" style="font-family: 'Open Sans', verdana, arial, sans-serif; font-size: 12px; fill: rgb(255, 255, 255); fill-opacity: 1; white-space: pre;" transform="translate(637.6155005031299,641.1620493887193)"><tspan class="line" dy="0em" x="0" y="0">True</tspan><tspan class="line" dy="1.3em" x="0" y="0">4.48%</tspan></text></g></g><g class="slice"><path class="surface" d="M628.5820998981734,571.7954099994412L692.87314984726,652.6931149991617A310,310 0,0,0 725.1824409261958,623.0560215026094L650.1216272841306,552.0373476684063A206.66666666666666,206.66666666666666 0,0,1 628.5820998981734,571.7954099994412Z" style="pointer-events: none; stroke-width: 1; fill: rgb(255, 20, 147); fill-opacity: 1; stroke: rgb(255, 255, 255); stroke-opacity: 1; opacity: 0.7;"/><g class="slicetext"><text data-notex="1" class="slicetext" text-anchor="middle" x="0" y="0" style="font-family: 'Open Sans', verdana, arial, sans-serif; font-size: 12px; fill: rgb(255, 255, 255); fill-opacity: 1; white-space: pre;" transform="translate(695.6809184178987,620.6833565295389)scale(0.8095782241962686)"><tspan class="line" dy="0em" x="0" y="0">False</tspan><tspan class="line" dy="1.3em" x="0" y="0">2.25%</tspan></text></g></g><g class="slice"><path class="surface" d="M650.1216272841306,552.0373476684063L725.1824409261958,623.0560215026094A310,310 0,0,0 738.4379012801195,608.1094829460013L658.958600853413,542.0729886306675A206.66666666666666,206.66666666666666 0,0,1 650.1216272841306,552.0373476684063Z" style="pointer-events: none; stroke-width: 1; fill: rgb(255, 20, 147); fill-opacity: 1; stroke: rgb(255, 255, 255); stroke-opacity: 1; opacity: 0.7;"/><g class="slicetext"><text data-notex="1" class="slicetext" text-anchor="middle" x="0" y="0" style="font-family: 'Open Sans', verdana, arial, sans-serif; font-size: 12px; fill: rgb(255, 255, 255); fill-opacity: 1; white-space: pre;" transform="translate(724.6756745332004,608.0041898505426)scale(0.3826478551005245)"><tspan class="line" dy="0em" x="0" y="0">True</tspan><tspan class="line" dy="1.3em" x="0" y="0">1.03%</tspan></text></g></g><g class="slice"><path class="surface" d="M658.958600853413,542.0729886306675L738.4379012801195,608.1094829460013A310,310 0,0,0 791.2567077409946,516.1580434817677L694.1711384939963,480.77202898784515A206.66666666666666,206.66666666666666 0,0,1 658.958600853413,542.0729886306675Z" style="pointer-events: none; stroke-width: 1; fill: rgb(65, 105, 225); fill-opacity: 1; stroke: rgb(255, 255, 255); stroke-opacity: 1; opacity: 0.7;"/><g class="slicetext"><text data-notex="1" class="slicetext" text-anchor="middle" x="0" y="0" style="font-family: 'Open Sans', verdana, arial, sans-serif; font-size: 12px; fill: rgb(255, 255, 255); fill-opacity: 1; white-space: pre;" transform="translate(729.5084187348474,538.5521279622615)"><tspan class="line" dy="0em" x="0" y="0">False</tspan><tspan class="line" dy="1.3em" x="0" y="0">5.47%</tspan></text></g></g><g class="slice"><path class="surface" d="M694.1711384939963,480.77202898784515L791.2567077409946,516.1580434817677A310,310 0,0,0 805.8962841344454,460.2738834061846L703.9308560896303,443.51592227078976A206.66666666666666,206.66666666666666 0,0,1 694.1711384939963,480.77202898784515Z" style="pointer-events: none; stroke-width: 1; fill: rgb(65, 105, 225); fill-opacity: 1; stroke: rgb(255, 255, 255); stroke-opacity: 1; opacity: 0.7;"/><g class="slicetext"><text data-notex="1" class="slicetext" text-anchor="middle" x="0" y="0" style="font-family: 'Open Sans', verdana, arial, sans-serif; font-size: 12px; fill: rgb(255, 255, 255); fill-opacity: 1; white-space: pre;" transform="translate(774.281622663633,478.5571535176559)"><tspan class="line" dy="0em" x="0" y="0">True</tspan><tspan class="line" dy="1.3em" x="0" y="0">2.97%</tspan></text></g></g><g class="slice"><path class="surface" d="M703.9308560896303,443.51592227078976L805.8962841344454,460.2738834061846A310,310 0,0,0 809.5304473572439,427.05585409249295L706.353631571496,421.3705693949953A206.66666666666666,206.66666666666666 0,0,1 703.9308560896303,443.51592227078976Z" style="pointer-events: none; stroke-width: 1; fill: rgb(255, 20, 147); fill-opacity: 1; stroke: rgb(255, 255, 255); stroke-opacity: 1; opacity: 0.7;"/><g class="slicetext"><text data-notex="1" class="slicetext" text-anchor="middle" x="0" y="0" style="font-family: 'Open Sans', verdana, arial, sans-serif; font-size: 12px; fill: rgb(255, 255, 255); fill-opacity: 1; white-space: pre;" transform="translate(792.3771766153465,439.918060818721)scale(0.6268843001145372)"><tspan class="line" dy="0em" x="0" y="0">False</tspan><tspan class="line" dy="1.3em" x="0" y="0">1.72%</tspan></text></g></g><g class="slice"><path class="surface" d="M706.353631571496,421.3705693949953L809.5304473572439,427.05585409249295A310,310 0,0,0 810,410.00000000000006L706.6666666666666,410.00000000000006A206.66666666666666,206.66666666666666 0,0,1 706.353631571496,421.3705693949953Z" style="pointer-events: none; stroke-width: 1; fill: rgb(255, 20, 147); fill-opacity: 1; stroke: rgb(255, 255, 255); stroke-opacity: 1; opacity: 0.7;"/><g class="slicetext"><text data-notex="1" class="slicetext" text-anchor="middle" x="0" y="0" style="font-family: 'Open Sans', verdana, arial, sans-serif; font-size: 12px; fill: rgb(255, 255, 255); fill-opacity: 1; white-space: pre;" transform="translate(801.5702400063545,417.21772837631545)scale(0.32830379132897625)"><tspan class="line" dy="0em" x="0" y="0">True</tspan><tspan class="line" dy="1.3em" x="0" y="0">0.88%</tspan></text></g></g></g></g><g class="glimages"/><defs id="topdefs-0c3616"><g class="clips"/></defs><g class="layer-above"><g class="imagelayer"/><g class="shapelayer"/></g><g class="infolayer"><g class="g-gtitle"><text class="gtitle" x="50" y="50" text-anchor="start" dy="0em" style="font-family: 'Open Sans', verdana, arial, sans-serif; font-size: 17px; fill: rgb(42, 63, 95); opacity: 1; font-weight: normal; white-space: pre;">Соотношение соискателей по городам с типом занятости "удаленная работа" среди мужчин и женщин</text></g></g></svg>